<?xml version="1.0" standalone="no"?>
<!DOCTYPE svg PUBLIC "-//W3C//DTD SVG 1.1//EN" "http://www.w3.org/Graphics/SVG/1.1/DTD/svg11.dtd">
<svg xmlns="http://www.w3.org/2000/svg" xmlns:xlink="http://www.w3.org/1999/xlink" version="1.1" id="body_1" width="337" height="339">
<style>
:root {
    --color: #0059AA;
}
</style>

<defs>
    <clipPath  id="1">

    <path id=""  clip-rule="evenodd" transform="matrix(1 0 0 1 0 0)"  d="M0 254L0 0L0 0L253 0L253 0L253 254L253 254L0 254z" />    </clipPath>
    <clipPath  id="2">

    <path id=""  clip-rule="evenodd" transform="matrix(1 0 0 1 0 0)"  d="M0 254L253 254L253 254L253 0L253 0L0 0z" />    </clipPath>
    <clipPath  id="3">

    <path id=""  clip-rule="evenodd" transform="matrix(1 0 0 1 0 0)"  d="M7 246L245 246L245 246L245 7L245 7L7 7z" />    </clipPath>
</defs>

<g transform="matrix(1.3333 0 0 1.3333 0 0)">
	<g clip-path="url(#1)" >
		<g clip-path="url(#2)" >
			<g clip-path="url(#3)" >
    <path id=""  transform="matrix(1 0 0 -1 0 254)"  d="M7.137 127.562C 7.137 61.656006 60.387 8.121002 126.008 8.121002L126.008 8.121002L126.008 13.089996L126.008 13.089996L126.008 13.089996C 63.059 13.089996 12.109 64.328 12.109 127.562L12.109 127.562L12.109 127.562C 12.109 190.672 63.059 242.15201 126.008 242.15201L126.008 242.15201L126.008 242.15201C 188.828 242.15201 240.016 190.672 240.016 127.562L240.016 127.562L240.016 127.562C 240.016 64.328 188.828 13.089996 126.008 13.089996L126.008 13.089996L126.008 8.121002L126.008 8.121002L126.008 8.121002C 191.496 8.121002 244.863 61.656006 244.863 127.562L244.863 127.562L244.863 127.562C 244.863 193.332 191.496 246.879 126.008 246.879L126.008 246.879L126.008 246.879C 60.387 246.879 7.137 193.332 7.137 127.562" stroke="none" fill="var(--color)" fill-rule="evenodd" />
    <path id=""  transform="matrix(1 0 0 -1 0 254)"  d="M40.129 127.562C 40.129 79.953 78.574 41.190994 126.008 41.190994L126.008 41.190994L126.008 44.457L126.008 44.457L126.008 44.457C 80.398 44.457 43.402 81.647995 43.402 127.562L43.402 127.562L43.402 127.562C 43.402 173.35199 80.398 210.543 126.008 210.543L126.008 210.543L126.008 210.543C 171.602 210.543 208.598 173.35199 208.598 127.562L208.598 127.562L208.598 127.562C 208.598 81.647995 171.602 44.457 126.008 44.457L126.008 44.457L126.008 41.190994L126.008 41.190994L126.008 41.190994C 173.305 41.190994 211.871 79.953 211.871 127.562L211.871 127.562L211.871 127.562C 211.871 175.047 173.305 213.80899 126.008 213.80899L126.008 213.80899L126.008 213.80899C 78.574 213.80899 40.129 175.047 40.129 127.562" stroke="none" fill="var(--color)" fill-rule="evenodd" />
    <path id=""  transform="matrix(1 0 0 -1 0 254)"  d="M97.98 195.51599C 97.738 194.539 97.379 193.574 96.648 192.363L96.648 192.363L96.648 192.363C 95.676 191.398 94.945 190.672 93.984 189.949L93.984 189.949L94.945 187.77701L94.945 187.77701L94.945 187.77701C 96.648 188.98401 97.738 190.30899 98.715 191.637L98.715 191.637L102.828 182.56601L102.828 182.56601L106.23 184.125L106.23 184.125L100.895 196.60901z" stroke="none" fill="var(--color)" fill-rule="evenodd" />
    <path id=""  transform="matrix(1 0 0 -1 0 254)"  d="M120.18 199.531C 119.086 200.35901 117.508 200.727 115.809 200.48401L115.809 200.48401L115.809 198.426L115.809 198.426L115.809 198.426C 116.18 198.426 116.785 198.187 117.387 197.81601L117.387 197.81601L117.387 197.81601C 117.875 197.449 118.359 196.855 118.477 196.121L118.477 196.121L118.477 196.121C 118.477 195.27 118.359 194.797 117.875 194.172L117.875 194.172L117.875 194.172C 117.508 193.82 116.785 193.332 116.18 193.332L116.18 193.332L115.809 193.332L115.809 193.332L115.809 191.281L115.809 191.281L115.809 191.281C 117.145 191.398 118.359 192 119.203 192.988L119.203 192.988L119.203 192.988C 119.203 191.398 119.086 190.30899 118.723 189.711L118.723 189.711L118.723 189.711C 118.121 189.10199 117.508 188.73401 116.785 188.73401L116.785 188.73401L116.785 188.73401C 116.422 188.60901 116.055 188.60901 115.809 188.73401L115.809 188.73401L115.809 186.43L115.809 186.43L116.785 186.43L116.785 186.43L116.785 186.43C 118.84 186.793 120.656 187.77701 121.754 188.98401L121.754 188.98401L121.754 188.98401C 123.094 190.30899 123.449 192.25 123.094 194.797L123.094 194.797L123.094 194.797C 122.723 197.086 121.754 198.789 120.18 199.531M115.809 200.48401L115.809 198.426L115.809 198.426L115.809 198.426C 115.559 198.426 115.445 198.426 115.199 198.187L115.199 198.187L115.199 198.187C 114.473 198.187 113.875 197.81601 113.504 197.449L113.504 197.449L113.504 197.449C 113.141 197.086 112.902 196.246 113.141 195.51599L113.141 195.51599L113.141 195.51599C 113.141 194.539 113.504 193.937 114.109 193.574L114.109 193.574L114.109 193.574C 114.473 193.332 115.199 193.227 115.809 193.332L115.809 193.332L115.809 191.281L115.809 191.281L115.809 191.281C 114.109 191.043 112.781 191.281 111.449 192L111.449 192L111.449 192C 110.234 192.613 109.508 193.574 109.262 194.91L109.262 194.91L109.262 194.91C 109.145 196.246 109.508 197.449 110.598 198.543L110.598 198.543L110.598 198.543C 111.566 199.531 113.141 200.113 115.082 200.48401zM115.809 188.73401L115.809 186.43L115.809 186.43L115.809 186.43C 114.473 186.312 113.504 186.43 112.781 186.793L112.781 186.793L112.781 186.793C 111.566 187.27701 111.078 188.01999 110.473 189.10199L110.473 189.10199L114.238 189.949L114.238 189.949L114.238 189.949C 114.473 189.34 114.719 189.10199 115.082 188.98401L115.082 188.98401L115.082 188.98401C 115.199 188.73401 115.445 188.73401 115.809 188.73401" stroke="none" fill="var(--color)" fill-rule="evenodd" />
    <path id=""  transform="matrix(1 0 0 -1 0 254)"  d="M133.879 200.852L133.035 200.852L133.035 200.852L133.035 198.789L133.035 198.789L133.035 198.789C 133.277 198.789 133.398 198.789 133.641 198.543L133.641 198.543L133.641 198.543C 134.004 198.543 134.367 198.543 134.855 198.187L134.855 198.187L134.855 198.187C 135.215 198.062 135.332 197.574 135.582 197.086L135.582 197.086L135.582 197.086C 135.703 196.492 135.703 195.15201 135.582 193.574L135.582 193.574L135.582 193.574C 135.332 192 135.215 190.91 134.855 190.30899L134.855 190.30899L134.855 190.30899C 134.613 189.711 134.25 189.34 133.879 189.34L133.879 189.34L133.879 189.34C 133.641 189.10199 133.277 189.10199 133.035 189.10199L133.035 189.10199L133.035 187.031L133.035 187.031L133.035 187.031C 134.613 186.793 135.941 187.27701 137.035 187.77701L137.035 187.77701L137.035 187.77701C 138.488 188.73401 139.344 190.672 139.586 193.227L139.586 193.227L139.586 193.227C 139.957 195.633 139.586 197.574 138.254 198.906L138.254 198.906L138.254 198.906C 137.273 199.875 135.703 200.727 133.879 200.852M133.035 200.852L133.035 198.789L133.035 198.789L133.035 198.789C 132.672 198.543 132.547 198.543 132.309 198.543L132.309 198.543L132.309 198.543C 131.938 198.426 131.574 198.062 131.336 197.574L131.336 197.574L131.336 197.574C 130.973 196.855 130.73 195.633 130.609 194.172L130.609 194.172L130.609 194.172C 130.367 192.613 130.367 191.398 130.609 190.91L130.609 190.91L130.609 190.91C 130.73 190.30899 130.973 189.949 131.336 189.59L131.336 189.59L131.336 189.59C 131.699 189.34 132.063 189.10199 132.547 189.10199L132.547 189.10199L133.035 189.10199L133.035 189.10199L133.035 187.031L133.035 187.031L132.309 187.031L132.309 187.031L132.309 187.031C 130.367 187.27701 128.906 187.77701 127.699 189.10199L127.699 189.10199L127.699 189.10199C 126.727 190.06601 126.117 192 126.609 194.797L126.609 194.797L126.609 194.797C 126.727 197.211 127.699 198.906 129.027 199.875L129.027 199.875L129.027 199.875C 130.246 200.727 131.336 201.09 133.035 200.852" stroke="none" fill="var(--color)" fill-rule="evenodd" />
    <path id=""  transform="matrix(1 0 0 -1 0 254)"  d="M145.523 198.543L144.555 196.492L144.555 196.492L152.805 192.988L152.805 192.988L152.805 192.988C 150.504 192.25 148.555 191.281 146.859 189.949L146.859 189.949L146.859 189.949C 145.168 188.363 143.953 186.793 143.219 185.09799L143.219 185.09799L146.738 183.76599L146.738 183.76599L146.738 183.76599C 147.102 184.85501 147.828 185.824 148.926 187.27701L148.926 187.27701L148.926 187.27701C 150.129 188.363 151.469 189.34 153.043 190.30899L153.043 190.30899L153.043 190.30899C 154.5 191.043 156.078 191.637 157.168 192L157.168 192L158.02 193.82z" stroke="none" fill="var(--color)" fill-rule="evenodd" />
    <path id=""  transform="matrix(1 0 0 -1 0 254)"  d="M56.738 194.797C 55.773 195.879 53.477 198.187 51.039 199.875L51.039 199.875L51.039 199.875C 48.867 201.695 46.555 202.77701 45.219 201.81601L45.219 201.81601L45.219 201.81601C 43.887 200.852 44.25 200.35901 44.137 199.156L44.137 199.156L44.137 199.156C 43.766 198.426 43.16 197.81601 42.551 197.211L42.551 197.211L42.551 197.211C 41.824 196.60901 40.129 195.51599 39.281 194.312L39.281 194.312L39.281 194.312C 39.156 193.574 37.941 193.937 37.824 193.332L37.824 193.332L37.824 193.332C 37.578 192.852 37.215 192.363 37.453 191.879L37.453 191.879L37.453 191.879C 38.188 189.34 43.523 184.125 43.523 184.125L43.523 184.125L43.523 184.125C 43.523 184.125 46.074 181.582 46.074 181.82L46.074 181.82L46.074 181.82C 47.77 179.887 49.707 178.312 50.199 177.949L50.199 177.949L50.199 177.949C 51.164 177.836 52.379 177.949 52.129 178.312L52.129 178.312L52.129 178.312C 51.164 180.137 48.492 181.82 47.406 183.40201L47.406 183.40201L47.406 183.40201C 45.828 185.457 44.137 187.031 42.551 188.98401L42.551 188.98401L42.551 188.98401C 42.195 189.34 41.824 190.06601 41.461 190.672L41.461 190.672L41.461 190.672C 41.219 190.91 41.219 191.398 41.461 192L41.461 192L41.461 192C 41.582 192.363 42.195 192.988 42.797 193.82L42.797 193.82L42.797 193.82C 43.523 195.15201 44.738 196.492 45.219 197.81601L45.219 197.81601L45.219 197.81601C 45.703 198.187 46.43 198.789 46.43 198.789L46.43 198.789L46.43 198.789C 47.039 199.395 48.133 199.156 48.742 198.906L48.742 198.906L48.742 198.906C 49.473 198.789 51.648 196.855 54.316 194.172L54.316 194.172L54.316 194.172C 56.133 192.363 56.629 192.613 57.102 190.555L57.102 190.555L57.102 190.555C 57.355 189.711 56.375 189.949 56.375 189.59L56.375 189.59L56.375 189.59C 56.02 188.60901 56.02 187.77701 57.961 187.27701L57.961 187.27701L57.961 187.27701C 58.32 187.031 59.051 186.68399 59.41 187.031L59.41 187.031L59.41 187.031C 59.652 187.27701 59.41 187.65201 59.289 188.363L59.289 188.363L59.289 188.363C 58.438 190.672 58.926 191.637 56.738 194.797" stroke="none" fill="var(--color)" fill-rule="evenodd" />
    <path id=""  transform="matrix(1 0 0 -1 0 254)"  d="M47.527 192.852C 47.527 193.332 47.156 193.937 46.555 194.172L46.555 194.172L46.555 194.172C 45.703 194.312 44.25 192.25 44.492 191.879L44.492 191.879L44.492 191.879C 44.492 191.281 44.738 190.672 45.102 190.91L45.102 190.91L45.102 190.91C 45.465 190.91 47.77 191.879 47.527 192.852" stroke="none" fill="var(--color)" fill-rule="evenodd" />
    <path id=""  transform="matrix(1 0 0 -1 0 254)"  d="M51.41 191.043C 50.438 190.91 49.348 190.672 49.109 190.672L49.109 190.672L49.109 190.672C 48.379 189.711 48.133 189.10199 47.039 188.01999L47.039 188.01999L47.039 188.01999C 47.156 188.01999 46.793 187.031 47.156 186.68399L47.156 186.68399L47.156 186.68399C 47.406 186.074 48.016 185.707 48.742 185.344L48.742 185.344L48.742 185.344C 49.348 185.09799 50.801 184.742 51.41 186.312L51.41 186.312L51.41 186.312C 51.648 187.031 50.676 187.414 50.199 187.65201L50.199 187.65201L50.199 188.01999L50.199 188.01999L50.801 188.01999L50.801 188.01999L50.801 188.01999C 50.801 188.133 52.129 187.65201 52.5 187.65201L52.5 187.65201L52.5 187.65201C 52.988 188.60901 53.715 189.949 52.988 191.043L52.988 191.043L52.988 191.043C 52.5 191.637 52.129 191.281 51.41 191.043" stroke="none" fill="var(--color)" fill-rule="evenodd" />
    <path id=""  transform="matrix(1 0 0 -1 0 254)"  d="M91.801 229.43C 92.035 229.559 92.035 229.559 92.289 229.793L92.289 229.793L92.289 229.793C 91.438 230.762 90.348 232.465 89.984 232.34L89.984 232.34L89.984 232.34C 89.73 232.102 89.613 232.102 89.367 231.492L89.367 231.492L89.367 231.492C 89.012 230.879 89.125 230.406 90.348 229.559L90.348 229.559L90.348 229.559C 90.945 229.43 91.309 229.43 91.801 229.43" stroke="none" fill="var(--color)" fill-rule="evenodd" />
    <path id=""  transform="matrix(1 0 0 -1 0 254)"  d="M100.531 228.117C 100.648 227.852 100.895 227.496 100.895 227.133L100.895 227.133L100.895 227.133C 100.648 226.289 100.285 225.926 100.043 225.562L100.043 225.562L100.043 225.562C 99.68 224.949 99.922 224.23 100.285 223.988L100.285 223.988L100.285 223.988C 101.621 223.617 101.863 225.812 101.863 227.621L101.863 227.621L101.863 227.621C 101.863 228.465 101.621 229.199 101.621 229.793L101.621 229.793L101.621 229.793C 101.863 230.406 102.949 230.879 103.199 230.762L103.199 230.762L103.199 230.762C 103.32 230.16 103.555 229.199 104.164 228.215L104.164 228.215L104.164 228.215C 104.527 227.266 105.504 226.289 105.867 226.164L105.867 226.164L105.867 226.164C 107.566 225.562 106.832 226.895 106.832 228.117L106.832 228.117L106.832 228.117C 106.832 228.215 106.594 228.215 106.469 228.215L106.469 228.215L106.469 228.215C 105.988 228.215 105.625 228.117 105.254 228.465L105.254 228.465L105.254 228.465C 105.137 228.586 103.926 231.117 103.926 231.492L103.926 231.492L103.926 231.492C 104.164 231.855 105.137 232.34 105.254 232.824L105.254 232.824L105.254 232.824C 105.504 233.32 105.254 234.035 105.137 234.035L105.137 234.035L105.137 234.035C 104.645 233.789 101.984 230.762 101.621 230.406L101.621 230.406L101.621 230.406C 101.266 230.16 100.895 230.16 100.648 230.406L100.648 230.406L100.648 230.406C 100.531 230.531 100.285 231.855 102.348 234.648L102.348 234.648L102.348 234.648C 102.949 235.609 102.828 235.609 102.348 235.98L102.348 235.98L102.348 235.98C 101.984 236.09799 101.496 235.609 100.895 235.609L100.895 235.609L100.895 235.609C 100.285 235.609 99.922 235.742 99.922 235.98L99.922 235.98L99.922 235.98C 99.68 236.336 99.922 236.941 99.68 237.305L99.68 237.305L99.68 237.305C 99.316 238.281 97.738 237.668 97.016 236.703L97.016 236.703L97.016 236.703C 96.285 235.742 93.984 231.375 94.945 230.531L94.945 230.531L94.945 230.531C 95.922 230.043 96.898 232.102 97.738 233.07L97.738 233.07L97.738 233.07C 98.715 234.035 99.68 234.035 99.922 234.035L99.922 234.035L99.922 234.035C 100.895 234.035 98.715 230.762 99.559 228.215L99.559 228.215L99.559 228.215C 99.559 227.621 98.59 226.895 97.98 227.266L97.98 227.266L97.98 227.266C 97.98 227.266 97.016 228.828 96.285 229.199L96.285 229.199L96.285 229.199C 95.922 229.199 95.313 227.621 95.922 226.895L95.922 226.895L95.922 226.895C 96.285 225.926 98.227 226.289 95.313 222.40201L95.313 222.40201L95.313 222.40201C 94.582 221.69101 94.582 220.582 94.582 219.746L94.582 219.746L94.582 219.746C 94.582 218.656 94.945 217.687 95.676 217.687L95.676 217.687L95.676 217.687C 96.648 217.449 97.262 218.656 97.379 219.02701L97.379 219.02701L97.379 219.02701C 97.738 219.375 98.344 220.945 98.59 222.66L98.59 222.66L98.59 222.66C 98.715 223.855 98.344 224.949 98.715 225.926L98.715 225.926L98.715 225.926C 99.195 226.656 99.68 227.266 100.531 228.117" stroke="none" fill="var(--color)" fill-rule="evenodd" />
    <path id=""  transform="matrix(1 0 0 -1 0 254)"  d="M91.066 225.195C 92.035 226.52701 91.672 227.621 90.102 228.586L90.102 228.586L90.102 228.586C 89.613 228.828 89.984 227.496 89.984 226.52701L89.984 226.52701L89.984 226.52701C 90.102 226.289 89.984 225.195 89.984 224.832L89.984 224.832L89.984 224.832C 89.73 224.34799 89.984 223.016 91.066 225.195" stroke="none" fill="var(--color)" fill-rule="evenodd" />
    <path id=""  transform="matrix(1 0 0 -1 0 254)"  d="M93.016 215.383L93.016 218.051L93.016 218.051L93.016 218.051C 92.77 218.656 91.672 220.10901 90.703 223.016L90.703 223.016L90.703 223.016C 90.457 223.617 89.73 223.617 89.73 223.016L89.73 223.016L89.73 223.016C 89.73 222.66 90.945 219.02701 91.066 216.719L91.066 216.719L91.066 216.719C 91.309 214.77 91.438 212.84 91.672 210.906L91.672 210.906L91.672 210.906C 91.801 209.81601 93.621 207.629 93.984 207.871L93.984 207.871L93.984 207.871C 94.344 208.004 94.582 208.363 94.105 210.18L94.105 210.18L94.105 210.18C 93.734 211.863 93.371 213.57 93.016 215.383" stroke="none" fill="var(--color)" fill-rule="evenodd" />
    <path id=""  transform="matrix(1 0 0 -1 0 254)"  d="M114.109 230.762C 113.875 230.879 113.504 230.531 113.141 230.531L113.141 230.531L113.141 230.531C 111.566 230.406 110.234 230.16 109.145 230.406L109.145 230.406L109.145 230.406C 108.773 230.406 108.293 230.531 108.293 230.879L108.293 230.879L108.293 230.879C 108.172 231.117 108.293 231.492 108.293 232.102L108.293 232.102L108.293 232.102C 108.293 232.465 108.172 233.07 107.809 233.07L107.809 233.07L107.809 233.07C 107.195 233.07 106.594 232.465 106.469 232.102L106.469 232.102L106.469 232.102C 105.988 231.738 105.867 231.492 105.867 230.406L105.867 230.406L105.867 230.406C 105.625 229.793 105.625 229.43 105.988 229.199L105.988 229.199L105.988 229.199C 106.469 228.828 107.441 228.828 108.293 228.828L108.293 228.828L108.293 228.828C 110.113 228.586 112.168 228.215 112.902 228.586L112.902 228.586L112.902 228.586C 113.746 228.828 114.473 229.43 114.719 229.559L114.719 229.559L114.719 229.559C 114.844 230.043 114.844 230.531 114.109 230.762" stroke="none" fill="var(--color)" fill-rule="evenodd" />
    <path id=""  transform="matrix(1 0 0 -1 0 254)"  d="M107.809 225.32C 107.195 225.562 106.832 225.195 106.23 224.582L106.23 224.582L106.23 224.582C 105.625 223.988 105.988 221.56601 105.254 220.582L105.254 220.582L105.254 220.582C 105.254 220.707 104.891 220.945 104.645 221.56601L104.645 221.56601L104.645 221.56601C 104.527 221.922 104.527 222.40201 103.926 222.66L103.926 222.66L103.926 222.66C 103.555 222.90201 103.555 222.285 103.199 221.922L103.199 221.922L103.199 221.922C 102.59 221.078 102.227 220.582 101.984 220.363L101.984 220.363L101.984 220.363C 101.012 219.988 101.496 221.922 100.648 222.40201L100.648 222.40201L100.648 222.40201C 100.285 223.016 99.559 221.922 99.68 220.945L99.68 220.945L99.68 220.945C 99.68 220.363 100.043 219.375 100.043 218.789L100.043 218.789L100.043 218.789C 100.285 218.168 100.285 217.324 100.285 217.078L100.285 217.078L100.285 217.078C 100.648 216.10901 100.895 214.90201 101.496 214.164L101.496 214.164L101.496 214.164C 101.984 213.445 102.828 213.57 102.348 215.383L102.348 215.383L102.348 215.383C 102.348 216.355 101.496 218.051 101.984 219.02701L101.984 219.02701L101.984 219.02701C 102.348 219.621 103.199 219.621 103.555 219.137L103.555 219.137L103.555 219.137C 103.926 218.656 103.926 217.449 104.281 217.324L104.281 217.324L104.281 217.324C 104.645 216.719 105.254 217.449 105.504 218.051L105.504 218.051L105.504 218.051C 105.625 218.168 105.625 219.02701 105.988 219.988L105.988 219.988L105.988 219.988C 105.988 220.582 106.469 220.945 106.594 221.56601L106.594 221.56601L106.594 221.56601C 106.832 222.285 106.832 222.90201 107.441 222.90201L107.441 222.90201L107.441 222.90201C 108.172 223.016 108.531 222.039 108.895 221.56601L108.895 221.56601L108.895 221.56601C 108.895 220.945 109.145 220.582 109.262 219.746L109.262 219.746L109.262 219.746C 109.508 219.137 109.262 217.324 109.262 216.10901L109.262 216.10901L109.262 216.10901C 109.145 215.504 109.145 215.133 109.145 214.90201L109.145 214.90201L109.145 214.90201C 109.508 214.535 109.871 214.41 110.234 217.078L110.234 217.078L110.234 217.078C 110.473 219.988 110.598 219.988 110.234 222.039L110.234 222.039L110.234 222.039C 110.234 223.617 108.531 225.195 107.809 225.32" stroke="none" fill="var(--color)" fill-rule="evenodd" />
    <path id=""  transform="matrix(1 0 0 -1 0 254)"  d="M164.941 230.043C 163.965 229.559 161.781 228.117 160.453 226.289L160.453 226.289L160.453 226.289C 159 224.582 158.746 223.988 158.133 224.34799L158.133 224.34799L158.133 224.34799C 157.656 224.34799 157.777 224.34799 156.805 224.949L156.805 224.949L156.805 224.949C 155.715 225.32 154.863 225.32 154.02 225.562L154.02 225.562L154.02 225.562C 153.168 225.812 152.078 224.949 151.84 224.34799L151.84 224.34799L151.84 224.34799C 151.469 223.617 151.84 223.617 152.434 223.254L152.434 223.254L152.434 223.254C 152.805 222.90201 154.863 222.285 155.477 222.285L155.477 222.285L155.477 222.285C 155.836 222.40201 156.441 222.285 156.324 221.922L156.324 221.922L156.324 221.922C 156.324 221.69101 153.781 219.746 152.805 219.02701L152.805 219.02701L152.805 219.02701C 151.84 218.414 149.898 217.078 149.535 216.48L149.535 216.48L149.535 216.48C 148.801 215.746 149.773 215.133 150.379 215.133L150.379 215.133L150.379 215.133C 150.734 215.133 151.707 215.871 153.168 216.355L153.168 216.355L153.168 216.355C 154.863 216.719 156.078 217.449 156.805 218.051L156.805 218.051L156.805 218.051C 157.656 218.656 159.109 220.363 159.473 220.582L159.473 220.582L159.473 220.582C 159.957 220.707 163.113 218.414 163.965 218.414L163.965 218.414L163.965 218.414C 164.324 218.656 164.941 219.137 165.418 219.621L165.418 219.621L165.418 219.621C 166.027 220.10901 165.656 220.707 164.941 220.707L164.941 220.707L164.941 220.707C 164.086 220.945 162.387 221.56601 161.418 222.039L161.418 222.039L161.418 222.039C 160.453 222.66 161.289 223.016 161.781 223.617L161.781 223.617L161.781 223.617C 162.262 224.23 164.574 226.289 165.656 227.496L165.656 227.496L165.656 227.496C 166.992 228.586 167.242 229.43 166.992 229.559L166.992 229.559L166.992 229.559C 166.754 230.16 165.906 230.16 164.941 230.043" stroke="none" fill="var(--color)" fill-rule="evenodd" />
    <path id=""  transform="matrix(1 0 0 -1 0 254)"  d="M160.313 216.355C 159.957 216.355 159.473 215.383 159.109 214.90201L159.109 214.90201L159.109 214.90201C 159 214.535 159.355 213.80899 159.355 213.082L159.355 213.082L159.355 213.082C 159.473 212.23 160.453 210.543 161.047 210.18L161.047 210.18L161.047 210.18C 161.418 209.93399 161.781 210.543 162.633 211.625L162.633 211.625L162.633 211.625C 163.352 212.84 163.352 212.84 162.387 214.164L162.387 214.164L162.387 214.164C 161.652 215.383 161.047 216.355 160.313 216.355" stroke="none" fill="var(--color)" fill-rule="evenodd" />
    <path id=""  transform="matrix(1 0 0 -1 0 254)"  d="M218.543 193.332C 218.18 194.172 215.754 194.91 215.141 195.27L215.141 195.27L215.141 195.27C 214.172 195.633 214.898 196.246 214.898 196.492L214.898 196.492L214.898 196.492C 214.785 196.855 213.938 196.60901 213.57 197.086L213.57 197.086L213.57 197.086C 213.207 197.449 213.207 198.062 213.449 198.187L213.449 198.187L213.449 198.187C 213.449 198.426 213.57 198.543 213.207 198.906L213.207 198.906L213.207 198.906C 212.844 199.395 212.844 198.906 211.629 198.906L211.629 198.906L211.629 198.906C 210.539 198.906 210.539 198.789 210.539 198.543L210.539 198.543L210.539 198.543C 210.539 198.187 210.539 197.81601 209.93 197.574L209.93 197.574L209.93 197.574C 209.203 197.449 208.598 197.211 208.238 196.60901L208.238 196.60901L208.238 196.60901C 207.625 195.879 207.262 195.633 207.262 195.51599L207.262 195.51599L207.262 195.51599C 207.262 195.27 207.625 195.15201 207.871 195.15201L207.871 195.15201L207.871 195.15201C 208.238 195.15201 209.566 195.879 210.168 196.121L210.168 196.121L210.168 196.121C 210.539 196.246 211.871 196.60901 212.117 196.492L212.117 196.492L212.117 196.492C 212.48 196.246 212.48 195.633 212.234 195.633L212.234 195.633L212.234 195.633C 212.117 195.51599 211.871 195.51599 211.516 195.633L211.516 195.633L211.516 195.633C 210.902 195.633 209.328 195.15201 208.832 194.797L208.832 194.797L208.832 194.797C 208.238 194.312 207.988 193.82 208.352 193.574L208.352 193.574L208.352 193.574C 208.832 192.988 212.117 192.988 212.844 193.227L212.844 193.227L212.844 193.227C 212.961 193.227 213.207 194.172 214.172 194.172L214.172 194.172L214.172 194.172C 214.785 194.172 215.512 193.574 215.875 193.332L215.875 193.332L215.875 193.332C 216.23 192.988 216.605 192.988 216.48 192.613L216.48 192.613L216.48 192.613C 216.48 192.25 215.875 192.25 215.262 192L215.262 192L215.262 192C 214.898 192 214.785 192.25 214.785 192.613L214.785 192.613L214.785 192.613C 214.785 192.988 214.539 193.227 213.938 192.988L213.938 192.988L213.938 192.988C 213.449 192.988 212.598 192.363 211.871 192.25L211.871 192.25L211.871 192.25C 210.902 192 208.965 191.879 208.598 191.879L208.598 191.879L208.598 191.879C 208.238 191.879 206.297 194.797 205.684 195.15201L205.684 195.15201L205.684 195.15201C 205.332 195.633 205.563 195.879 205.563 196.246L205.563 196.246L205.563 196.246C 205.563 196.492 209.203 198.543 210.289 199.156L210.289 199.156L210.289 199.156C 211.629 199.77 211.871 200.35901 211.871 200.852L211.871 200.852L211.871 200.852C 211.629 201.695 210.289 201.328 209.566 200.727L209.566 200.727L209.566 200.727C 208.832 200.35901 207.016 198.906 206.652 198.426L206.652 198.426L206.652 198.426C 206.172 198.062 205.563 197.211 205.199 197.449L205.199 197.449L205.199 197.449C 204.594 197.574 204.594 198.789 204.355 199.156L204.355 199.156L204.355 199.156C 204.23 199.531 203.867 199.531 203.258 199.531L203.258 199.531L203.258 199.531C 202.406 199.395 202.043 198.543 200.234 197.574L200.234 197.574L200.234 197.574C 199.375 197.086 199.02 197.086 198.656 196.60901L198.656 196.60901L198.656 196.60901C 198.41 196.492 198.41 195.879 198.656 195.633L198.656 195.633L198.656 195.633C 199.02 195.27 199.984 195.51599 200.59 195.633L200.59 195.633L200.59 195.633C 201.078 195.633 201.563 196.121 201.926 196.246L201.926 196.246L201.926 196.246C 202.043 196.246 203.258 194.91 203.984 194.312L203.984 194.312L203.984 194.312C 204.719 193.82 207.262 190.672 207.625 190.555L207.625 190.555L207.625 190.555C 208.965 189.711 210.539 187.414 210.539 187.27701L210.539 187.27701L210.539 187.27701C 210.656 187.031 210.902 186.68399 210.539 186.43L210.539 186.43L210.539 186.43C 209.93 186.074 209.93 186.074 209.93 185.707L209.93 185.707L209.93 185.707C 210.168 185.457 211.629 184.375 212.117 184.125L212.117 184.125L212.117 184.125C 212.598 184.125 213.938 184.125 214.172 184.742L214.172 184.742L214.172 184.742C 214.539 184.85501 213.938 185.344 213.813 185.707L213.813 185.707L213.813 185.707C 213.449 186.074 213.449 187.031 212.844 187.414L212.844 187.414L212.844 187.414C 212.117 187.77701 209.566 190.91 209.566 190.91L209.566 190.91L209.566 190.91C 209.566 191.043 211.266 191.398 211.629 191.281L211.629 191.281L211.629 191.281C 212.117 191.043 212.117 190.30899 212.844 190.06601L212.844 190.06601L212.844 190.06601C 213.207 190.06601 213.207 190.30899 213.57 190.30899L213.57 190.30899L213.57 190.30899C 214.172 190.555 214.172 190.30899 216.113 190.30899L216.113 190.30899L216.113 190.30899C 218.055 190.555 218.18 190.672 218.543 191.398L218.543 191.398L218.543 191.398C 218.906 191.879 219.145 192.613 218.543 193.332" stroke="none" fill="var(--color)" fill-rule="evenodd" />
    <path id=""  transform="matrix(1 0 0 -1 0 254)"  d="M205.684 188.73401C 205.563 189.10199 203.258 191.637 202.652 192L202.652 192L202.652 192C 202.043 192.25 201.68 192.25 201.316 192L201.316 192L201.316 192C 201.078 191.637 200.59 191.043 200.352 190.91L200.352 190.91L200.352 190.91C 200.234 190.672 200.953 190.06601 201.316 189.949L201.316 189.949L201.316 189.949C 201.68 189.59 202.289 188.73401 202.652 188.60901L202.652 188.60901L202.652 188.60901C 203.258 188.363 203.984 188.60901 203.867 188.01999L203.867 188.01999L203.867 188.01999C 203.867 187.65201 202.652 186.68399 202.043 186.793L202.043 186.793L202.043 186.793C 200.953 186.793 199.984 188.60901 198.77 189.59L198.77 189.59L198.77 189.59C 198.41 189.949 197.68 189.949 197.32 189.949L197.32 189.949L197.32 189.949C 196.957 190.30899 196.469 189.949 196.469 189.711L196.469 189.711L196.469 189.711C 196.469 189.34 196.957 188.98401 196.957 188.60901L196.957 188.60901L196.957 188.60901C 197.078 188.01999 197.441 187.77701 198.047 187.414L198.047 187.414L198.047 187.414C 199.02 186.793 199.984 185.824 200.352 185.457L200.352 185.457L200.352 185.457C 200.59 185.09799 200.953 184.742 199.738 184.125L199.738 184.125L199.738 184.125C 198.77 183.52301 197.441 183.16 196.344 183.52301L196.344 183.52301L196.344 183.52301C 195.133 184.125 194.402 184.85501 194.281 185.707L194.281 185.707L194.281 185.707C 194.039 186.312 193.68 185.457 193.43 184.85501L193.43 184.85501L193.43 184.85501C 193.313 184.375 192.703 183.52301 192.836 183.16L192.836 183.16L192.836 183.16C 193.066 182.805 193.066 182.56601 194.039 182.19101L194.039 182.19101L194.039 182.19101C 195.016 182.07 197.32 181.465 198.293 181.582L198.293 181.582L198.293 181.582C 200.352 181.82 201.078 183.40201 201.563 183.40201L201.563 183.40201L201.563 183.40201C 201.68 183.40201 202.043 182.805 202.406 182.56601L202.406 182.56601L202.406 182.56601C 202.652 182.43399 203.258 181.219 203.984 181.219L203.984 181.219L203.984 181.219C 204.594 181.219 205.332 181.465 204.957 182.805L204.957 182.805L204.957 182.805C 204.719 183.40201 204.23 183.40201 203.379 184.5L203.379 184.5L203.379 184.5C 203.379 184.85501 203.867 185.707 203.984 185.707L203.984 185.707L203.984 185.707C 204.23 185.457 206.652 185.457 207.016 185.707L207.016 185.707L207.016 185.707C 207.262 185.824 207.625 187.031 207.508 187.27701L207.508 187.27701L207.508 187.27701C 207.508 187.65201 205.926 188.60901 205.684 188.73401" stroke="none" fill="var(--color)" fill-rule="evenodd" />
    <path id=""  transform="matrix(1 0 0 -1 0 254)"  d="M190.523 157.10901C 189.066 159.301 184.223 165.488 178.523 171.656L178.523 171.656L178.523 162.93399L178.523 162.93399L178.523 162.93399C 182.891 155.76999 184.098 150.461 184.098 150.461L184.098 150.461L184.098 150.461C 184.098 150.461 181.184 149.129 178.523 146.219L178.523 146.219L178.523 139.437L178.523 139.437L178.523 139.437C 179.488 141.60501 181.184 143.91 182.398 145.012L182.398 145.012L182.398 145.012C 184.461 146.93 185.426 145.012 185.188 144.039L185.188 144.039L185.188 144.039C 185.063 141.72699 183.254 140.043 181.91 139.312L181.91 139.312L181.91 139.312C 178.637 136.76599 179.605 134.59 178.637 134.10501L178.637 134.10501L178.637 134.10501C 178.523 134.10501 178.523 134.10501 178.523 133.85501L178.523 133.85501L178.523 90.504L178.523 90.504L178.523 90.504C 180.457 95.699005 180.219 98.84801 180.09 105.16L180.09 105.16L180.09 105.16C 179.852 112.543 179.488 119.80499 180.219 118.59801L180.219 118.59801L180.219 118.59801C 181.184 117.507996 183.488 108.050995 183.488 103.457L183.488 103.457L183.488 103.457C 183.254 94.375 183.254 90.977005 178.523 84.797L178.523 84.797L178.523 76.437L178.523 76.437L178.523 76.437C 179.488 77.422 180.457 78.371 181.184 79.229996L181.184 79.229996L181.184 79.229996C 187.492 85.16 189.066 94.375 190.156 97.270004L190.156 97.270004L190.156 97.270004C 191.125 100.300995 190.398 104.539 188.469 110L188.469 110L188.469 110C 186.891 115.199005 184.832 122.468994 183.852 126.949L183.852 126.949L183.852 126.949C 182.762 131.305 182.398 135.07 183.727 137.008L183.727 137.008L183.727 137.008C 184.832 138.81601 185.063 139.074 186.891 138.09799L186.891 138.09799L186.891 138.09799C 188.469 137.371 189.191 135.426 188.469 127.562L188.469 127.562L188.469 127.562C 187.738 119.199005 188.707 117.270004 191.008 122.352005L191.008 122.352005L191.008 122.352005C 192.836 126.949 192.703 131.922 192.836 135.07L192.836 135.07L192.836 135.07C 193.313 138.336 193.801 141.25 194.652 142.715L194.652 142.715L194.652 142.715C 195.379 144.27301 193.313 152.762 190.523 157.10901M168.449 67.117004L168.449 79.953L168.449 79.953L168.574 80.065994L168.574 80.065994L168.574 80.065994C 170.027 81.647995 172.336 87.104996 172.336 88.789L172.336 88.789L172.336 88.789C 172.336 90.36301 170.512 97.15199 168.449 98.84801L168.449 98.84801L168.449 103.457L168.449 103.457L168.449 103.457C 168.813 103.578 169.059 103.457 169.301 103.457L169.301 103.457L169.301 103.457C 170.629 102.852005 172.941 95.582 173.18 94.979996L173.18 94.979996L173.18 94.979996C 173.18 94.979996 172.207 129.97699 174.27 138.461L174.27 138.461L174.27 138.461C 175.004 141.72699 176.813 144.27301 178.277 146.219L178.277 146.219L178.523 146.219L178.523 146.219L178.523 139.437L178.523 139.437L178.277 139.437L178.277 139.437L178.277 139.437C 177.797 138.336 177.547 137.371 177.547 136.76599L177.547 136.76599L177.547 136.76599C 177.547 135.426 177.797 133.75 178.277 133.85501L178.277 133.85501L178.523 133.85501L178.523 133.85501L178.523 90.504L178.523 90.504L178.523 90.504C 178.523 90.36301 178.523 90.36301 178.277 90.36301L178.277 90.36301L178.277 90.36301C 178.277 90 178.16 89.531006 177.91 89.168L177.91 89.168L177.91 89.168C 176.582 85.76601 174.879 83.593994 174.879 83.593994L174.879 83.593994L174.879 83.593994C 173.18 80.925995 172.336 78.746 175.848 81.520004L175.848 81.520004L175.848 81.520004C 176.813 82.621 177.547 83.593994 178.277 84.565994L178.277 84.565994L178.277 84.565994C 178.523 84.565994 178.523 84.797 178.523 84.797L178.523 84.797L178.523 76.437L178.523 76.437L178.277 76.437L178.277 76.437L178.277 76.437C 175.848 73.781006 172.453 70.02699 168.449 67.117004M168.449 136.40201L168.449 149.85901L168.449 149.85901L168.449 149.85901C 170.629 150.215 172.207 149.613 172.207 149.613L172.207 149.613L172.207 149.613C 172.207 149.613 179.605 148.27701 171.965 145.84799L171.965 145.84799L171.965 145.84799C 171.48 145.73001 170.148 141.844 168.449 136.40201M168.449 175.89099L168.449 180.375L168.449 180.375L168.449 180.375C 171.965 177.836 175.359 174.68399 178.277 171.656L178.277 171.656L178.523 171.656L178.523 171.656L178.523 162.93399L178.523 162.93399L178.277 162.93399L178.277 162.93399L178.277 162.93399C 177.547 164.262 176.813 165.59799 175.605 167.051L175.605 167.051L175.605 167.051C 174.152 168.988 171.48 172.613 168.449 175.89099M168.449 180.375L168.449 175.89099L168.449 175.89099L168.449 175.89099C 166.266 178.187 163.84 180.375 161.418 181.82L161.418 181.82L161.418 184.125L161.418 184.125L161.418 184.125C 163.723 183.27701 166.141 181.953 168.449 180.375M168.449 149.85901L168.449 136.40201L168.449 136.40201L168.449 136.40201C 167.723 134.10501 166.992 131.68 166.266 129.01999L166.266 129.01999L166.266 129.01999C 166.027 128.039 167.598 127.082 167.598 126L167.598 126L167.598 126C 167.355 122.468994 164.941 123.082 164.691 121.871L164.691 121.871L164.691 121.871C 163.352 116.914 162.262 111.940994 161.418 108.425995L161.418 108.425995L161.418 125.754L161.418 125.754L161.418 125.754C 161.781 126 162.016 126 162.262 126L162.262 126L162.262 126C 163.352 126.594 163.965 130.59799 164.574 133.254L164.574 133.254L164.574 133.254C 165.055 136.039 166.992 141.72699 167.598 143.555L167.598 143.555L167.598 143.555C 168.207 145.012 167.969 147.914 165.418 146.344L165.418 146.344L165.418 146.344C 164.324 145.84799 162.988 144.879 161.418 143.68L161.418 143.68L161.418 150.81601L161.418 150.81601L161.418 150.81601C 162.387 149.613 162.988 148.758 163.352 147.914L163.352 147.914L163.352 147.914C 165.055 148.758 166.383 149.238 166.992 149.488L166.992 149.488L166.992 149.488C 167.48 149.613 167.969 149.73401 168.449 149.85901M168.449 103.457L168.449 98.84801L168.449 98.84801L168.449 98.84801C 168.207 99.086 167.848 99.203 167.598 99.203L167.598 99.203L167.598 99.203C 165.906 99.203 163.352 98.84801 161.418 98.254L161.418 98.254L161.418 103.093994L161.418 103.093994L161.418 103.093994C 163.598 102.73801 166.754 103.457 168.449 103.457M168.449 79.953L168.449 67.117004L168.449 67.117004L168.449 67.117004C 168.207 66.867004 167.848 66.621 167.598 66.51601L167.598 66.51601L167.598 66.51601C 165.418 65.050995 163.352 63.957 161.418 62.996002L161.418 62.996002L161.418 74.51199L161.418 74.51199L161.418 74.51199C 164.574 76.437 167.355 78.867004 168.449 79.953M82.215 67.117004L82.215 82.007996L82.215 82.007996L82.215 82.007996C 82.586 81.897995 82.941 81.772995 83.426 81.647995L83.426 81.647995L83.426 81.647995C 84.039 81.520004 85.004 83.593994 85.367 85.52699L85.367 85.52699L85.367 85.52699C 85.734 87.461 86.699 88.789 85.734 89.406006L85.734 89.406006L85.734 89.406006C 85.609 89.406006 84.039 89.63699 82.215 89.882996L82.215 89.882996L82.215 93.272995L82.215 93.272995L82.215 93.272995C 83.668 93.272995 84.758 93.272995 84.758 93.76199L84.758 93.76199L84.758 93.76199C 84.758 94.129 83.668 94.73801 82.215 95.465L82.215 95.465L82.215 104.539L82.215 104.539L82.215 104.539C 85.129 100.800995 88.152 99.203 89.125 99.336L89.125 99.336L89.125 99.336C 90.348 99.574005 91.066 106.004 92.77 110L92.77 110L92.77 110C 93.371 111.703 94.105 114.004 94.582 116.175995L94.582 116.175995L94.582 107.332L94.582 107.332L94.582 107.332C 93.254 102.246 92.289 98.004 92.77 97.882996L92.77 97.882996L92.77 97.882996C 93.016 97.629 93.734 97.629 94.582 97.629L94.582 97.629L94.582 94.73801L94.582 94.73801L94.582 94.73801C 93.016 94.979996 91.438 94.73801 91.066 94L91.066 94L91.066 94C 90.945 93.035 93.371 89.76601 93.016 88.543L93.016 88.543L93.016 88.543C 92.035 86.5 89.367 88.789 89.012 87.593994L89.012 87.593994L89.012 87.593994C 87.789 83.957 86.699 80.324005 86.461 79.34L86.461 79.34L86.461 79.34C 86.336 77.785 88.035 78.020004 89.367 77.039L89.367 77.039L89.367 77.039C 90.945 76.324005 91.066 74.51199 93.371 75.468994L93.371 75.468994L93.371 75.468994C 93.734 75.711 94.105 75.836 94.582 76.324005L94.582 76.324005L94.582 60.811996L94.582 60.811996L94.582 60.811996C 89.613 62.996002 84.395 66.02699 82.453 67.604996L82.453 67.604996L82.453 67.604996C 82.453 67.604996 82.336 67.47301 82.215 67.117004M82.215 127.68L82.215 136.039L82.215 136.039L82.215 136.039C 86.219 139.676 90.348 143.301 90.102 144.039L90.102 144.039L90.102 144.039C 89.984 147.305 88.402 146.219 86.461 148.27701L86.461 148.27701L86.461 148.27701C 85.004 150.461 85.855 154.332 90.945 151.43L90.945 151.43L90.945 151.43C 93.254 150.09 91.672 147.305 93.984 145.97299L93.984 145.97299L93.984 145.97299C 94.105 145.84799 94.344 145.84799 94.582 145.84799L94.582 145.84799L94.582 142.10199L94.582 142.10199L94.582 142.10199C 94.105 141.97699 93.734 141.72699 93.254 141.60501L93.254 141.60501L93.254 141.60501C 90.703 139.801 89.613 139.801 88.035 137.129L88.035 137.129L88.035 137.129C 85.129 131.805 88.035 130.961 89.125 128.289L89.125 128.289L89.125 128.289C 90.703 125.254 92.402 124.039 94.582 124.039L94.582 124.039L94.582 121.132996L94.582 121.132996L94.582 121.132996C 93.371 121.132996 91.672 121.01199 90.703 121.507996L90.703 121.507996L90.703 121.507996C 89.012 122.468994 87.789 123.809006 85.367 126.949L85.367 126.949L85.367 126.949C 84.156 128.40201 83.188 128.168 82.215 127.68M82.215 148.875C 83.305 149 83.668 151.05899 82.215 153.488zM161.418 184.125C 161.047 184.125 160.816 184.375 160.453 184.5L160.453 184.5L160.453 184.5C 159.719 184.742 159 184.85501 158.383 185.09799L158.383 185.09799L158.383 183.52301L158.383 183.52301L158.383 183.52301C 159 183.16 159.473 183.039 160.313 182.56601L160.313 182.56601L160.313 182.56601C 160.691 182.19101 161.047 182.07 161.418 181.82zM161.418 103.093994C 160.816 103.215 161.047 105.16 161.418 108.300995L161.418 108.300995L161.418 125.754L161.418 125.754L161.418 125.754C 160.453 125.625 159.355 125.754 158.383 126.594L158.383 126.594L158.383 122.352005L158.383 122.352005L158.383 122.352005C 158.746 122.121 159.109 121.871 159.473 121.871L159.473 121.871L159.473 121.871C 160.313 122.121 161.289 122.352005 161.418 122.468994L161.418 122.468994L161.418 122.352005L161.418 122.352005L161.418 122.352005C 161.289 121.132996 160.453 115.332 159.719 112.668L159.719 112.668L159.719 112.668C 159.355 110.72301 159 106.73399 158.383 104.422L158.383 104.422L158.383 95.582L158.383 95.582L158.383 95.582C 158.746 96.550995 159.109 97.035 159.719 97.52699L159.719 97.52699L159.719 97.52699C 160.313 97.629 160.816 98.004 161.418 98.254zM161.418 150.81601C 160.691 152.137 159.473 153.363 158.383 154.09L158.383 154.09L158.383 148.27701L158.383 148.27701L158.383 148.27701C 159.355 147.789 160.313 147.18 161.047 146.824L161.047 146.824L161.047 146.824C 160.313 146.344 159.355 145.84799 158.383 145.254L158.383 145.254L158.383 140.762L158.383 140.762L158.383 140.762C 159.109 141.72699 160.313 142.715 161.418 143.68zM158.383 61.410004C 159.355 61.781006 160.313 62.395004 161.418 62.757996L161.418 62.757996L161.418 74.51199L161.418 74.51199L161.418 74.51199C 160.453 74.01601 159.355 73.418 158.383 73.059006zM158.383 185.09799L158.383 183.52301L158.383 183.52301L158.383 183.52301C 155.715 184.85501 155.715 185.707 158.383 185.09799M158.383 154.09L158.383 148.27701L158.383 148.27701L158.383 148.27701C 157.656 148.758 156.805 149.129 156.078 149.238L156.078 149.238L156.078 149.238C 155.715 149.488 154.863 149.488 154.383 149.613L154.383 149.613L154.383 149.613C 154.137 149.613 154.02 149.613 153.781 149.85901L153.781 149.85901L153.781 155.672L153.781 155.672L154.383 155.672L154.383 155.672L154.383 155.672C 155.477 155.422 156.805 154.80899 158.02 154.332L158.02 154.332L158.02 154.332C 158.02 154.332 158.133 154.09 158.383 154.09M158.383 145.254L158.383 140.762L158.383 140.762L158.383 140.762C 157.777 140.27301 157.414 139.676 157.051 139.312L157.051 139.312L157.051 139.312C 155.715 137.008 154.863 136.40201 155.352 132.293L155.352 132.293L155.352 132.293C 155.477 129.258 156.805 127.562 158.383 126.594L158.383 126.594L158.383 122.352005L158.383 122.352005L158.383 122.352005C 157.051 122.718994 155.477 124.039 154.383 124.76601L154.383 124.76601L154.383 124.76601C 154.137 125.01601 154.02 125.254 153.781 125.254L153.781 125.254L153.781 142.10199L153.781 142.10199L153.781 142.10199C 154.02 142.344 154.137 142.344 154.383 142.582L154.383 142.582L154.383 142.582C 155.477 143.555 157.051 144.27301 158.383 145.254M153.781 59.483994L153.781 71.836L153.781 71.836L153.781 71.836C 154.02 71.727005 154.137 71.727005 154.383 71.727005L154.383 71.727005L154.383 71.727005C 155.109 71.836 156.324 72.440994 158.133 73.059006L158.133 73.059006L158.383 73.059006L158.383 73.059006L158.383 61.410004L158.383 61.410004L158.383 61.410004C 156.805 60.690994 155.477 60.086 154.383 59.723007L154.383 59.723007L154.383 59.723007C 154.137 59.723007 154.02 59.723007 153.781 59.483994M158.383 104.422L158.383 95.582L158.383 95.582L158.383 95.582C 157.051 92.797 156.441 88.42999 155.836 86.13699L155.836 86.13699L155.836 86.13699C 155.477 84.565994 154.863 82.621 154.383 80.562L154.383 80.562L154.383 80.562C 154.137 79.953 154.02 79.34 153.781 78.617004L153.781 78.617004L153.781 88.42999L153.781 88.42999L153.781 88.42999C 154.02 88.789 154.137 89.168 154.383 89.531006L154.383 89.531006L154.383 89.531006C 154.5 90.504 154.746 91.828 155.109 93.63699L155.109 93.63699L155.109 93.63699C 155.836 96.300995 155.352 97.035 154.383 97.270004L154.383 97.270004L154.383 97.270004C 154.137 97.52699 154.02 97.52699 154.02 97.52699L154.02 97.52699L153.781 97.629L153.781 97.629L153.781 101.882996L153.781 101.882996L154.383 101.882996L154.383 101.882996L154.383 101.882996C 155.477 101.882996 156.68 102.121 157.414 102.48801L157.414 102.48801L157.414 102.48801C 157.777 102.602005 158.02 103.457 158.383 104.422M153.781 155.672C 153.168 155.672 152.68 155.672 152.078 155.422L152.078 155.422L152.078 155.422C 151.469 155.422 151.105 155.301 150.734 154.80899L150.734 154.80899L150.734 154.80899C 148.191 152.39801 149.773 151.05899 152.078 150.215L152.078 150.215L152.078 150.215C 152.68 150.09 153.168 149.85901 153.781 149.85901zM153.781 142.10199C 153.168 141.72699 152.68 141.25 152.078 140.762L152.078 140.762L152.078 140.762C 150.867 139.801 149.898 138.81601 149.41 137.85501L149.41 137.85501L149.41 137.85501C 148.801 136.76599 147.828 135.426 146.859 133.75L146.859 133.75L146.859 116.289L146.859 116.289L146.859 116.539L146.859 116.539L146.859 116.539C 147.828 121.01199 149.41 125.379 149.898 126.348L149.898 126.348L149.898 126.348C 150.734 127.68 151.105 126.949 152.078 126.105L152.078 126.105L152.078 126.105C 152.434 126 152.68 125.625 153.043 125.625L153.043 125.625L153.043 125.625C 153.168 125.625 153.531 125.379 153.781 125.254zM146.859 53.184006C 147.227 53.554993 147.465 54.156006 147.59 54.886993L147.59 54.886993L147.59 54.886993C 147.828 56.104996 147.828 57.059006 148.191 58.151993L148.191 58.151993L148.191 58.151993C 148.438 58.395004 149.773 58.520004 152.078 59.121002L152.078 59.121002L152.078 59.121002C 152.68 59.121002 153.168 59.358994 153.781 59.483994L153.781 59.483994L153.781 71.836L153.781 71.836L153.781 71.836C 153.168 71.836 153.043 72.57001 153.043 74.379L153.043 74.379L153.043 74.379C 153.043 75.711 153.41 77.297 153.781 78.617004L153.781 78.617004L153.781 88.42999L153.781 88.42999L153.531 88.19501L153.531 88.19501L153.531 88.19501C 153.043 87.461 152.68 86.85899 152.078 87.104996L152.078 87.104996L152.078 87.104996C 151.469 87.104996 150.734 88.07001 149.535 90.36301L149.535 90.36301L149.535 90.36301C 148.555 92.324005 148.074 94.73801 149.773 96.550995L149.773 96.550995L149.773 96.550995C 150.504 97.270004 151.23 97.629 152.078 97.629L152.078 97.629L152.078 97.629C 152.68 97.882996 153.168 97.629 153.781 97.629L153.781 97.629L153.781 101.882996L153.781 101.882996L153.781 101.882996C 153.168 102.121 152.68 102.121 152.078 102.246L152.078 102.246L152.078 102.246C 150.734 102.246 149.773 102.852005 149.172 103.093994L149.172 103.093994L149.172 103.093994C 148.438 103.828 147.465 104.539 146.859 106.004L146.859 106.004L146.859 106.117004L146.859 106.117004L146.859 79.711L146.859 79.711L146.859 79.711C 148.074 80.562 148.926 81.285 149.898 81.897995L149.898 81.897995L149.898 81.897995C 150.504 82.25 151.707 82.621 152.078 81.897995L152.078 81.897995L152.078 81.897995C 152.203 81.520004 152.203 80.925995 152.078 79.953L152.078 79.953L152.078 79.953C 151.84 79.586 151.84 79.34 151.84 79.229996L151.84 79.229996L151.84 79.229996C 150.504 75.711 149.773 69.175995 147.828 68.937L147.828 68.937L146.859 68.937zM146.859 133.5L146.859 116.289L146.859 116.289L146.859 116.289C 146.738 114.957 146.25 113.629 146.133 112.543L146.133 112.543L146.133 112.543C 145.895 109.632996 146.133 107.457 146.859 106.117004L146.859 106.117004L146.859 79.711L146.859 79.711L146.859 79.711C 145.895 78.992004 144.918 78.371 143.953 77.66L143.953 77.66L143.953 77.66C 141.277 76.074005 141.277 74.147995 141.891 72.203L141.891 72.203L141.891 72.203C 142.137 70.507996 144.918 69.175995 146.859 68.937L146.859 68.937L146.859 53.184006L146.859 53.184006L146.859 53.184006C 145.773 51.973007 143.953 52.820007 143.953 52.820007L143.953 52.820007L143.953 52.820007C 143.953 54.156006 143.59 53.793 144.191 54.886993L144.191 54.886993L144.191 54.886993C 144.555 56.207 144.797 57.195007 144.797 57.195007L144.797 57.195007L136.305 57.195007L136.305 57.195007L136.305 67.604996L136.305 67.604996L136.305 67.604996C 138.254 68.332 138.488 68.332 138.859 70.15199L138.859 70.15199L138.859 70.15199C 138.98 71.48399 137.883 71.727005 136.918 71.48399L136.918 71.48399L136.918 71.48399C 136.672 71.48399 136.555 71.48399 136.305 71.23399L136.305 71.23399L136.305 91.34801L136.305 91.34801L136.305 91.34801C 136.672 91.09801 136.918 90.73399 136.918 90.36301L136.918 90.36301L136.918 90.36301C 137.883 87.832 138.98 78.992004 140.188 78.746L140.188 78.746L140.188 78.746C 141.277 78.617004 144.434 82.25 144.918 83.957L144.918 83.957L144.918 83.957C 146.133 87.461 141.277 91.465 139.824 94L139.824 94L139.824 94C 138.254 96.550995 135.941 106.84801 138.488 115.332L138.488 115.332L138.488 115.332C 139.586 119.440994 143.59 127.68 146.859 133.5M136.305 139.676C 137.273 142.344 138 144.51599 138.254 144.879L138.254 144.879L138.254 144.879C 138.98 146.219 141.516 146.93 142.254 147.18L142.254 147.18L142.254 147.18C 144.434 147.305 143.953 148.51599 142.977 149.613L142.977 149.613L142.977 149.613C 142.492 150.215 140.32 150.56601 137.645 150.81601L137.645 150.81601L137.645 150.81601C 137.035 151.05899 136.672 151.05899 136.305 151.05899zM136.305 91.34801L136.191 91.465L136.191 91.465L136.191 91.465C 133.879 94.254 126.363 98.48399 126.363 98.48399L126.363 98.48399L126.363 98.48399C 126.117 98.84801 126.117 99.203 126.117 99.574005L126.117 99.574005L126.117 100.543L126.117 100.543L126.117 100.543C 126.363 105.16 129.641 114.832 130.246 118.47301L130.246 118.47301L130.246 118.47301C 130.246 119.078 130.367 119.80499 130.609 121.01199L130.609 121.01199L130.609 121.01199C 130.973 121.871 133.398 121.01199 132.902 124.289L132.902 124.289L132.902 124.289C 132.902 125.01601 132.309 126.711 132.309 127.082L132.309 127.082L132.309 127.082C 133.641 131.305 134.977 136.039 136.191 139.437L136.191 139.437L136.305 139.676L136.305 139.676L136.305 151.05899L136.305 151.05899L136.191 151.05899L136.191 151.05899L136.191 151.05899C 133.879 151.05899 131.699 150.81601 130.004 150.09L130.004 150.09L130.004 150.09C 128.906 149.613 127.453 149.238 126.117 149.129L126.117 149.129L126.117 145.97299L126.117 145.97299L126.117 145.97299C 127.453 146.344 129.027 146.824 130.973 147.543L130.973 147.543L130.973 147.543C 134.25 148.51599 134.613 146.344 134.613 146.344L134.613 146.344L134.613 146.344C 134.613 146.344 134.977 144.51599 133.035 139.312L133.035 139.312L133.035 139.312C 131.094 133.85501 129.641 125.01601 128.305 124.414L128.305 124.414L128.305 124.414C 127.699 124.289 126.973 124.289 126.117 124.414L126.117 124.414L126.117 121.01199L126.117 121.01199L126.117 121.01199C 126.727 121.01199 126.973 120.789 126.973 120.418L126.973 120.418L126.973 120.418C 126.973 120.050995 126.727 117.742004 126.117 114.832L126.117 114.832L126.117 92.797L126.117 92.797L126.117 92.797C 127.09 92.672 128.063 91.465 129.395 90.977005L129.395 90.977005L129.395 90.977005C 131.336 89.76601 132.672 89.168 133.035 85.16L133.035 85.16L133.035 85.16C 133.398 81.050995 135.941 78.257996 136.191 76.437L136.191 76.437L136.305 76.437zM126.117 57.059006C 128.063 57.059006 132.309 57.195007 136.191 57.195007L136.191 57.195007L136.305 57.195007L136.305 57.195007L136.305 67.604996L136.305 67.604996L136.191 67.604996L136.191 67.604996L136.191 67.604996C 134.367 67 133.277 67.47301 133.879 68.57001L133.879 68.57001L133.879 68.57001C 134.25 69.289 135.332 70.746 136.191 71.23399L136.191 71.23399L136.305 71.23399L136.305 71.23399L136.305 76.074005L136.305 76.074005L136.305 76.074005C 136.305 76.074005 136.191 76.074005 136.191 75.836L136.191 75.836L136.191 75.836C 135.941 74.147995 131.938 70.507996 129.641 69.289L129.641 69.289L129.641 69.289C 128.906 69.175995 127.453 68.57001 126.117 68.332zM126.117 149.129L126.117 145.97299L126.117 145.97299L126.117 145.97299C 125.156 145.59799 124.422 145.254 123.449 144.64099L123.449 144.64099L123.449 144.64099C 122.117 143.68 120.789 142.582 119.691 141.25L119.691 141.25L119.691 152.035L119.691 152.035L119.691 152.035C 120.789 150.215 121.996 148.758 122.723 148.875L122.723 148.875L122.723 148.875C 123.449 148.875 124.785 149.129 126.117 149.129M119.691 57.195007L119.691 68.199005L119.691 68.199005L119.691 67.957L119.691 67.957L119.691 67.957C 121.152 67.47301 123.813 67.843994 126.117 68.332L126.117 68.332L126.117 57.059006L126.117 57.059006L125.754 57.059006L125.754 57.059006L125.754 57.059006C 124.422 57.059006 121.996 57.059006 119.691 57.195007M126.117 124.414L126.117 121.01199L126.117 121.01199L126.117 121.01199C 124.664 121.38699 121.996 121.01199 120.418 121.746L120.418 121.746L120.418 121.746C 120.18 121.871 120.063 122.121 119.691 122.352005L119.691 122.352005L119.691 129.85901L119.691 129.85901L119.691 129.629L119.691 129.629L119.691 129.629C 120.18 128.531 121.031 127.562 121.391 126.711L121.391 126.711L121.391 126.711C 122.359 125.379 124.297 124.65199 126.117 124.414M126.117 114.367004L126.117 92.797L126.117 92.797L126.117 92.797C 125.637 93.035 125.156 92.797 124.785 92.672L124.785 92.672L124.785 92.672C 123.813 92.324005 123.449 90.504 122.723 87.229996L122.723 87.229996L122.723 87.229996C 122.117 83.832 121.754 83.957 120.418 79.34L120.418 79.34L120.418 79.34C 120.18 78.617004 120.063 77.66 119.691 76.809006L119.691 76.809006L119.691 76.687L119.691 76.687L119.691 86.13699L119.691 86.13699L119.691 86.13699C 120.789 86.254 121.031 89.531006 121.152 90.977005L121.152 90.977005L121.152 90.977005C 121.754 93.272995 122.117 93.76199 121.031 94.61301L121.031 94.61301L121.031 94.61301C 120.789 94.73801 120.18 95.093994 119.691 95.582L119.691 95.582L119.691 101.882996L119.691 101.882996L119.691 101.757996L119.691 101.757996L119.691 101.757996C 120.789 101.156006 121.754 100.800995 122.48 100.800995L122.48 100.800995L122.48 100.800995C 123.332 100.800995 125.027 108.668 126.117 114.367004M119.691 152.035C 118.723 153.117 118.121 154.332 117.387 154.80899L117.387 154.80899L117.387 154.80899C 116.422 155.672 113.504 157.10901 112.168 155.422L112.168 155.422L112.168 150.81601L112.168 150.81601L112.168 150.81601C 113.141 150.09 114.719 150.215 116.422 149.613L116.422 149.613L116.422 149.613C 118.477 149.129 119.203 147.18 118.723 146.219L118.723 146.219L118.723 146.219C 117.023 143.301 115.082 141.383 113.258 139.074L113.258 139.074L113.258 139.074C 112.781 138.336 112.414 137.85501 112.168 137.504L112.168 137.504L112.168 127.082L112.168 127.082L112.168 127.082C 112.414 127.32 112.414 127.562 112.781 127.562L112.781 127.562L112.781 127.562C 114.238 127.918 117.508 123.809006 119.691 122.352005L119.691 122.352005L119.691 129.85901L119.691 129.85901L119.691 129.85901C 118.359 132.293 116.785 135.551 118.121 138.461L118.121 138.461L118.121 138.461C 118.359 139.437 118.84 140.27301 119.691 141.25zM112.168 51.852005C 112.168 51.973007 112.414 51.973007 112.414 51.973007L112.414 51.973007L112.414 51.973007C 112.781 52.578003 113.258 53.793 113.504 55.25L113.504 55.25L113.504 55.25C 113.875 57.059006 114.238 57.539 114.238 57.539L114.238 57.539L114.238 57.539C 114.238 57.539 116.785 57.421997 119.691 57.195007L119.691 57.195007L119.691 68.199005L119.691 68.199005L119.691 68.199005C 119.203 68.332 118.84 68.57001 118.723 68.937L118.723 68.937L118.723 68.937C 117.508 70.86301 118.477 73.418 119.691 76.687L119.691 76.687L119.691 86.13699L119.691 86.13699L119.691 86.13699C 118.477 85.897995 118.121 89.406006 118.121 91.34801L118.121 91.34801L118.121 91.34801C 117.875 93.035 117.387 93.272995 117.75 95.94501L117.75 95.94501L117.75 95.94501C 117.75 96.906006 118.723 96.300995 119.691 95.582L119.691 95.582L119.691 101.882996L119.691 101.882996L119.691 101.882996C 117.75 103.093994 115.445 105.02699 114.109 107.086L114.109 107.086L114.109 107.086C 113.504 108.050995 112.781 109.270004 112.168 110.59801L112.168 110.59801L112.168 110.72301L112.168 110.72301L112.168 82.86301L112.168 82.86301L112.168 82.86301C 113.875 81.897995 114.844 81.050995 115.809 80.687L115.809 80.687L115.809 80.687C 117.023 80.065994 117.387 79.229996 116.543 75.836L116.543 75.836L116.543 75.836C 115.559 72.440994 115.082 70.257996 113.746 70.15199L113.746 70.15199L113.746 70.15199C 113.141 70.15199 112.531 70.15199 112.168 70.746zM112.168 155.422L112.168 150.81601L112.168 150.81601L112.168 150.81601C 111.566 151.43 111.203 152.137 111.449 153.73001L111.449 153.73001L111.449 153.73001C 111.566 154.449 111.805 155.051 112.168 155.422M112.168 137.504L112.168 127.082L112.168 127.082L112.168 127.082C 110.84 126 110.473 122.468994 110.234 120.418L110.234 120.418L110.234 120.418C 109.625 116.289 110.84 113.270004 112.168 110.72301L112.168 110.72301L112.168 82.86301L112.168 82.86301L112.168 82.86301C 111.805 82.98801 111.449 82.98801 111.078 83.23801L111.078 83.23801L111.078 83.23801C 108.773 84.32001 108.531 84.797 107.566 83.593994L107.566 83.593994L107.441 83.593994L107.441 83.593994L107.441 87.832L107.441 87.832L107.441 87.832C 107.566 87.832 107.566 88.07001 107.809 88.07001L107.809 88.07001L107.809 88.07001C 110.113 88.07001 111.93 88.07001 111.93 90L111.93 90L111.93 90C 111.93 91.703 111.203 95.093994 110.234 96.550995L110.234 96.550995L110.234 96.550995C 109.508 97.882996 108.531 99.336 107.441 101.520004L107.441 101.520004L107.441 128.65201L107.441 128.65201L107.441 128.65201C 108.293 130.836 109.262 132.887 109.871 134.10501L109.871 134.10501L109.871 134.10501C 110.598 135.801 111.203 136.40201 112.168 137.504M107.441 141.25C 107.566 141.25 107.566 141.25 107.809 141.383L107.809 141.383L107.809 141.383C 108.773 141.72699 109.145 143.91 107.441 145.012zM107.441 58.151993L107.441 70.507996L107.441 70.507996L107.441 70.507996C 107.809 70.86301 107.809 71.23399 107.441 71.836L107.441 71.836L107.441 81.897995L107.441 81.897995L107.441 81.897995C 107.566 81.647995 107.809 81.285 107.93 80.687L107.93 80.687L107.93 80.687C 108.531 78.992004 109.262 77.785 110.234 74.51199L110.234 74.51199L110.234 74.51199C 111.078 72.440994 111.566 71.23399 112.168 70.746L112.168 70.746L112.168 51.852005L112.168 51.852005L112.168 51.852005C 111.078 50.996002 109.508 52.464996 109.508 52.464996L109.508 52.464996L109.508 52.464996C 109.508 52.464996 109.871 53.554993 110.113 54.516006L110.113 54.516006L110.113 54.516006C 110.473 55.128998 110.473 55.854996 110.84 56.574005L110.84 56.574005L110.84 56.574005C 111.203 57.781006 109.871 57.781006 107.441 58.151993M107.441 128.65201C 106.594 126.711 105.625 124.76601 105.254 123.809006L105.254 123.809006L105.254 123.809006C 103.32 118.59801 102.949 113.629 104.164 109.757996L104.164 109.757996L104.164 109.757996C 105.254 106.117004 106.469 103.578 107.441 101.757996L107.441 101.757996L107.441 101.520004zM107.441 87.832C 105.254 87.593994 104.527 87.593994 103.684 91.828L103.684 91.828L103.684 91.828C 103.555 93.406006 103.32 94.375 103.199 95.093994L103.199 95.093994L103.199 79.34L103.199 79.34L103.199 79.34C 103.32 79.586 103.684 79.586 103.684 79.586L103.684 79.586L103.684 79.586C 104.527 79.586 105.504 76.437 105.867 74.992004L105.867 74.992004L105.867 74.992004C 106.23 74.147995 106.957 73.059006 107.441 72.078L107.441 72.078L107.441 71.836L107.441 71.836L107.441 82.007996L107.441 82.007996L107.441 82.007996C 107.195 82.621 106.957 82.98801 107.441 83.593994zM103.199 136.039C 103.926 138.699 104.527 140.39499 104.645 140.762L104.645 140.762L104.645 140.762C 104.891 141.383 106.469 141.25 107.441 141.25L107.441 141.25L107.441 145.012L107.441 145.012L107.441 145.012C 106.832 145.367 105.137 145.59799 103.199 145.59799zM103.199 58.520004C 104.645 58.395004 106.23 58.151993 107.441 58.151993L107.441 58.151993L107.441 70.507996L107.441 70.507996L107.441 70.507996C 106.469 69.895004 104.891 70.257996 103.199 70.507996zM103.199 95.093994L103.199 79.34L103.199 79.34L103.199 79.34C 102.227 78.746 101.012 77.66 100.043 76.324005L100.043 76.324005L100.043 82.25L100.043 82.25L100.043 82.25C 101.012 83.468994 101.621 84.32001 101.621 84.797L101.621 84.797L101.621 84.797C 101.984 86.13699 101.012 89.531006 100.043 91.828L100.043 91.828L100.043 97.629L100.043 97.629L100.043 97.629C 100.285 97.629 100.531 97.52699 100.648 97.52699L100.648 97.52699L100.648 97.52699C 101.863 97.035 102.348 96.672 103.199 95.093994M100.043 121.746C 100.285 121.746 100.648 121.746 100.895 122.121L100.895 122.121L100.895 122.121C 101.012 122.468994 101.266 123.809006 101.012 124.65199L101.012 124.65199L101.012 124.65199C 101.012 125.254 100.531 125.254 100.043 125.379zM100.043 126.949L100.043 134.59L100.043 134.59L100.043 134.59C 101.496 138.461 102.348 141.25 102.348 142.94101L102.348 142.94101L102.348 142.94101C 102.348 143.301 101.621 143.555 100.043 143.301L100.043 143.301L100.043 145.59799L100.043 145.59799L103.199 145.59799L103.199 145.59799L103.199 136.039L103.199 136.039L103.199 136.039C 102.227 133.5 101.012 129.97699 100.043 126.949M100.043 58.996002L100.043 70.86301L100.043 70.86301L100.043 70.86301C 100.648 70.746 101.496 70.746 101.984 70.746L101.984 70.746L101.984 70.746C 102.348 70.746 102.828 70.507996 103.199 70.507996L103.199 70.507996L103.199 58.520004L103.199 58.520004L103.199 58.520004C 102.348 58.520004 101.621 58.520004 100.895 58.757996L100.895 58.757996L100.895 58.757996C 100.648 58.757996 100.285 58.996002 100.043 58.996002M100.043 97.629C 98.715 97.882996 96.285 97.629 94.582 97.629L94.582 97.629L94.582 94.73801L94.582 94.73801L94.582 94.73801C 95.559 94.61301 96.402 94.61301 97.016 94.375L97.016 94.375L97.016 94.375C 98.344 94.375 98.953 94.254 100.043 92.078L100.043 92.078L100.043 91.828zM94.582 107.457C 95.922 112.543 97.738 118.10899 98.59 121.132996L98.59 121.132996L98.59 121.132996C 98.715 121.507996 99.559 121.38699 100.043 121.746L100.043 121.746L100.043 125.379L100.043 125.379L100.043 125.379C 99.922 125.379 99.68 125.625 99.922 126L99.922 126L99.922 126C 99.922 126.105 100.043 126.594 100.043 126.949L100.043 126.949L100.043 134.59L100.043 134.59L100.043 134.469L100.043 134.469L100.043 134.469C 99.559 132.887 98.953 130.961 98.227 129.01999L98.227 129.01999L98.227 129.01999C 97.262 125.625 98.344 124.65199 95.559 124.039L95.559 124.039L94.582 124.039L94.582 124.039L94.582 121.132996L94.582 121.132996L94.582 121.132996C 95.313 121.132996 95.922 121.132996 95.676 121.01199L95.676 121.01199L95.676 121.01199C 95.559 120.418 95.313 118.47301 94.582 116.175995zM100.043 145.59799C 97.98 145.59799 95.676 145.59799 94.582 145.84799L94.582 145.84799L94.582 142.10199L94.582 142.10199L94.582 142.10199C 96.285 142.715 98.59 143.301 100.043 143.301zM94.582 60.811996C 96.648 59.964996 98.59 59.358994 100.043 58.996002L100.043 58.996002L100.043 70.86301L100.043 70.86301L100.043 70.86301C 98.953 71.10899 97.98 71.727005 98.715 73.543L98.715 73.543L98.715 73.543C 98.953 74.379 99.559 75.352005 100.043 76.324005L100.043 76.324005L100.043 82.25L100.043 82.25L100.043 82.25C 98.59 80.065994 96.285 77.422 94.582 76.324005zM82.215 153.488L82.215 148.875L82.215 148.875L82.215 148.875C 81.973 148.758 81.734 148.875 81.363 148.875L81.363 148.875L81.363 154.80899L81.363 154.80899L81.363 154.80899C 81.734 154.449 81.973 153.965 82.215 153.488M82.215 136.039L82.215 127.68L82.215 127.68L82.215 127.68C 81.973 127.562 81.609 127.32 81.363 127.082L81.363 127.082L81.363 135.187zM82.215 104.539L82.215 95.465L82.215 95.465L81.363 95.94501L81.363 95.94501L81.363 106.004L81.363 106.004L81.363 106.004C 81.609 105.51199 81.973 105.02699 82.215 104.539M82.215 93.272995L82.215 89.882996L82.215 89.882996L82.215 89.882996C 81.973 89.882996 81.609 89.882996 81.363 90L81.363 90L81.363 93.272995zM82.215 82.007996L82.215 67.117004L82.215 67.117004L82.215 67.117004C 81.973 66.754 81.609 66.02699 81.363 65.539L81.363 65.539L81.363 82.5L81.363 82.5L81.363 82.5C 81.609 82.25 81.973 82.13699 82.215 82.007996M76.641 72.203C 78.34 70.257996 79.422 69.175995 79.422 69.175995L79.422 69.175995L79.422 69.175995C 79.422 69.175995 78.82 67.23399 78.094 65.66L78.094 65.66L78.094 65.66C 77.484 63.957 79.066 63.602005 79.918 63.602005L79.918 63.602005L79.918 63.602005C 80.148 63.602005 80.875 64.328 81.363 65.297L81.363 65.297L81.363 82.5L81.363 82.5L81.363 82.5C 79.539 83.593994 78.094 85.52699 77.484 87.104996L77.484 87.104996L77.484 87.104996C 77.121 88.543 75.543 89.531006 78.094 90.125L78.094 90.125L78.094 90.125C 78.574 90.125 79.918 90.125 81.363 90L81.363 90L81.363 93.272995L81.363 93.272995L81.363 93.272995C 80.52 93.035 79.539 93.035 78.82 93.035L78.82 93.035L78.82 93.035C 77.961 92.918 77.242 92.672 76.641 92.324005zM76.641 99.574005C 76.879 99.203 77.121 98.965 77.484 98.60899L77.484 98.60899L77.484 98.60899C 78.574 97.52699 80.148 96.672 81.363 95.94501L81.363 95.94501L81.363 106.004L81.363 106.004L81.363 106.004C 81.117 106.35899 80.875 106.73399 80.875 106.84801L80.875 106.84801L80.875 106.84801C 79.539 109.270004 78.094 113.867004 79.066 119.199005L79.066 119.199005L79.066 119.199005C 79.793 124.289 79.422 126 81.117 126.949L81.117 126.949L81.363 127.082L81.363 127.082L81.363 135.187L81.363 135.187L81.363 135.187C 79.422 133.254 77.605 131.55899 76.641 130.34799zM76.641 151.555C 78.82 151.05899 80.273 149.488 81.363 149.129L81.363 149.129L81.363 148.875L81.363 148.875L81.363 154.80899L81.363 154.80899L81.363 154.80899C 81.117 155.301 80.875 155.422 80.52 155.76999L80.52 155.76999L80.52 155.76999C 79.184 157.35501 77.723 157.961 76.641 158.211zM76.641 162.93399L76.641 172.742L76.641 172.742L76.641 172.742C 77.121 172.379 77.605 171.89499 77.848 171.41L77.848 171.41L77.848 171.41C 79.422 168.754 79.539 165.84799 77.242 163.547L77.242 163.547L77.242 163.547C 77.121 163.297 76.879 163.055 76.641 162.93399M76.641 172.742L76.641 162.93399L76.641 162.93399L76.641 162.93399C 74.699 161.113 72.637 160.75 73.477 159.551L73.477 159.551L73.477 159.551C 73.965 158.578 75.18 158.69101 76.641 158.211L76.641 158.211L76.641 151.555L76.641 151.555L76.641 151.555C 76.027 151.793 75.305 151.793 74.578 151.793L74.578 151.793L74.578 151.793C 70.57 151.555 68.266 149.488 68.266 147.789L68.266 147.789L68.266 147.789C 68.266 145.97299 70.207 125.754 69.605 122.352005L69.605 122.352005L69.605 122.352005C 68.992 118.836 64.625 107.457 65.961 101.882996L65.961 101.882996L65.961 101.882996C 67.539 96.550995 73.121 91.465 74.453 91.465L74.453 91.465L74.453 91.465C 74.938 91.586 75.781 91.961 76.641 92.324005L76.641 92.324005L76.641 72.203L76.641 72.203L76.641 72.203C 72.148 77.156006 63.418 87.34801 60.625 93.406006L60.625 93.406006L60.625 93.406006C 56.738 101.757996 59.289 106.84801 60.387 115.332L60.387 115.332L60.387 115.332C 61.594 123.809006 61.23 137.504 60.016 145.012L60.016 145.012L60.016 145.012C 58.684 155.301 61.719 156.01999 64.996 159.301L64.996 159.301L64.996 159.301C 68.02 162.32 71.297 162.93399 72.148 167.414L72.148 167.414L72.148 167.414C 72.512 170.69101 70.207 172.14801 69.965 173.949L69.965 173.949L69.965 173.949C 69.719 175.41 74.215 174.68399 76.641 172.742M76.641 130.34799C 76.395 129.97699 76.152 129.738 75.906 129.496L75.906 129.496L75.906 129.496C 73.965 126.348 71.297 115.812 72.148 110.965L72.148 110.965L72.148 110.965C 73 106.48399 73.363 103.578 76.641 99.574005z" stroke="none" fill="var(--color)" fill-rule="evenodd" />
    <path id=""  transform="matrix(1 0 0 -1 0 254)"  d="M28.609 93.76199C 29.336 93.76199 29.941 94 30.668 94.254L30.668 94.254L30.668 94.254C 32.969 94.979996 34.91 96.07001 36.125 98.004L36.125 98.004L36.125 98.004C 37.215 100.17999 37.578 102.121 36.973 104.175995L36.973 104.175995L36.973 104.175995C 36.488 106.35899 35.273 107.80499 33.332 109.031006L33.332 109.031006L33.332 109.031006C 32.969 109.270004 32.613 109.375 32.359 109.632996L32.359 109.632996L32.359 109.632996C 32.242 109.632996 32.242 109.632996 32.242 109.757996L32.242 109.757996L32.242 109.757996C 31.887 109.757996 31.508 110 31.031 110L31.031 110L31.031 110.23801L31.031 110.23801L31.031 110.23801C 30.668 110.23801 30.301 110.23801 29.941 110.371L29.941 110.371L28.609 110.371L28.609 110.371L28.609 107.457L28.609 107.457L28.609 107.457C 30.18 107.80499 31.277 107.80499 32.359 107.69501L32.359 107.69501L32.359 107.457L32.359 107.457L32.359 107.457C 32.848 107.457 33.211 107.332 33.582 107.332L33.582 107.332L33.582 107.332C 34.91 106.73399 35.645 105.51199 36.125 104.175995L36.125 104.175995L36.125 104.175995C 36.488 102.602005 36.246 101.272995 35.52 100.17999L35.52 100.17999L35.52 100.17999C 34.309 98.84801 32.359 97.629 29.699 96.906006L29.699 96.906006L29.699 96.906006C 29.336 96.672 28.965 96.672 28.609 96.672zM25.094 94.375C 24.727 94.61301 24.363 94.73801 24 94.979996L24 94.979996L24 94.979996C 22.059 95.94501 20.723 97.629 20.113 99.949005L20.113 99.949005L20.113 99.949005C 19.633 102.121 19.996 104.175995 20.969 106.117004L20.969 106.117004L20.969 106.117004C 22.059 108.050995 24 109.375 26.422 110L26.422 110L26.422 110C 27.023 110.23801 27.875 110.371 28.363 110.371L28.363 110.371L28.609 110.371L28.609 110.371L28.609 107.457L28.609 107.457L28.609 107.457C 28.238 107.457 27.875 107.332 27.27 107.332L27.27 107.332L27.27 107.332C 24.605 106.73399 22.785 105.51199 21.699 104.065994L21.699 104.065994L21.699 104.065994C 20.723 102.852005 20.723 101.520004 20.969 100.17999L20.969 100.17999L20.969 100.17999C 21.332 98.60899 22.301 97.52699 23.754 96.906006L23.754 96.906006L23.754 96.906006C 24.238 96.672 24.605 96.550995 24.969 96.550995L24.969 96.550995L24.969 96.550995C 25.332 96.300995 25.691 96.300995 26.297 96.300995L26.297 96.300995L26.422 96.300995L26.422 96.300995L26.422 96.300995C 26.906 96.300995 27.27 96.300995 27.395 96.550995L27.395 96.550995L28.363 96.550995L28.363 96.550995L28.609 96.672L28.609 96.672L28.609 93.76199L28.609 93.76199L28.609 93.76199C 27.395 93.76199 26.297 94 25.094 94.375" stroke="none" fill="var(--color)" fill-rule="evenodd" />
    <path id=""  transform="matrix(1 0 0 -1 0 254)"  d="M19.996 121.132996L32.359 122.121L32.359 122.121L32.613 119.55499L32.613 119.55499L32.613 119.55499C 32.848 119.078 32.613 118.47301 32.359 118.10899L32.359 118.10899L32.359 118.10899C 32.242 117.507996 32.004 117.270004 31.508 116.914L31.508 116.914L31.508 116.914C 31.277 116.77699 30.668 116.77699 29.941 116.539L29.941 116.539L30.18 115.925995L30.18 115.925995L33.945 116.539L33.945 116.539L32.969 129.97699L32.969 129.97699L29.211 129.97699L29.211 129.97699L29.211 129.496L29.211 129.496L29.211 129.496C 29.941 129.496 30.551 129.496 30.914 129.01999L30.914 129.01999L30.914 129.01999C 31.508 128.89499 31.641 128.531 31.887 128.039L31.887 128.039L31.887 128.039C 32.004 127.68 32.004 127.082 32.242 126.348L32.242 126.348L32.242 124.414L32.242 124.414L19.758 123.434006L19.758 123.434006L19.758 123.434006C 18.781 123.434006 18.293 123.434006 17.816 123.684006L17.816 123.684006L17.816 123.684006C 17.445 123.809006 17.09 124.414 17.09 125.254L17.09 125.254L17.09 125.754L17.09 125.754L16.719 125.625L16.719 125.625L17.09 118.59801L17.09 118.59801L17.684 118.59801L17.684 118.59801L17.684 119.199005L17.684 119.199005L17.684 119.199005C 17.445 119.80499 17.684 120.418 17.816 120.789L17.816 120.789L17.816 120.789C 18.293 121.01199 18.781 121.01199 19.996 121.132996" stroke="none" fill="var(--color)" fill-rule="evenodd" />
    <path id=""  transform="matrix(1 0 0 -1 0 254)"  d="M46.43 78.371C 47.039 78.257996 47.406 78.020004 47.77 77.297L47.77 77.297L48.016 76.687L48.016 76.687L48.379 76.809006L48.379 76.809006L45.828 82.007996L45.828 82.007996L45.219 81.897995L45.219 81.897995L45.703 81.520004L45.703 81.520004L45.703 81.520004C 45.828 80.925995 46.074 80.324005 45.828 79.953L45.828 79.953L45.828 79.953C 45.703 79.586 45.102 79.229996 44.25 78.617004L44.25 78.617004L35.645 74.379L35.645 74.379L42.195 89.168L42.195 89.168L40.129 93.035L40.129 93.035L39.766 93.035L39.766 93.035L39.766 93.035C 40.129 92.42999 40.129 92.324005 40.129 91.828L40.129 91.828L40.129 91.828C 40.254 91.465 40.254 90.977005 40.129 90.73399L40.129 90.73399L40.129 90.73399C 40.129 90.36301 40.129 90 39.766 89.168L39.766 89.168L29.336 83.957L29.336 83.957L29.336 83.957C 28.609 83.593994 27.996 83.468994 27.645 83.468994L27.645 83.468994L27.645 83.468994C 27.023 83.468994 26.906 83.832 26.422 84.32001L26.422 84.32001L26.297 84.914L26.297 84.914L25.691 84.797L25.691 84.797L28.363 79.586L28.363 79.586L28.727 79.711L28.727 79.711L28.609 80.324005L28.609 80.324005L28.609 80.324005C 28.238 80.925995 28.238 81.520004 28.363 81.897995L28.363 81.897995L28.363 81.897995C 28.609 82.007996 28.965 82.5 29.941 82.98801L29.941 82.98801L38.918 87.593994L38.918 87.593994L32.004 71.727005L32.004 71.727005L32.242 71.48399L32.242 71.48399L44.738 77.785L44.738 77.785L44.738 77.785C 45.703 78.257996 46.199 78.371 46.43 78.371" stroke="none" fill="var(--color)" fill-rule="evenodd" />
    <path id=""  transform="matrix(1 0 0 -1 0 254)"  d="M55.656 56.104996L56.02 56.207L56.02 56.207L51.773 61.311996L51.773 61.311996L51.41 60.811996L51.41 60.811996L51.41 60.811996C 52.016 60.453003 52.129 59.964996 52.129 59.723007L52.129 59.723007L52.129 58.996002L52.129 58.996002L52.129 58.996002C 52.016 58.520004 51.648 58.151993 51.039 57.781006L51.039 57.781006L47.406 54.516006L47.406 54.516006L47.406 54.516006C 46.793 54.886993 46.199 55.128998 45.828 55.492004L45.828 55.492004L45.828 55.492004C 45.219 55.727005 44.855 56.207 44.25 56.574005L44.25 56.574005L44.25 56.574005C 43.766 57.421997 43.402 58.395004 43.16 59.483994L43.16 59.483994L43.16 59.483994C 42.914 60.690994 43.16 62.022995 43.766 63.371002L43.766 63.371002L43.766 63.371002C 44.25 64.578 45.219 65.66 46.43 66.867004L46.43 66.867004L46.43 66.867004C 48.016 67.957 49.707 68.80499 51.41 68.937L51.41 68.937L51.41 68.937C 53.352 69.175995 55.043 68.57001 56.375 66.867004L56.375 66.867004L56.375 66.867004C 57.355 65.66 57.723 64.328 57.723 62.996002L57.723 62.996002L57.723 62.996002C 57.598 62.022995 57.102 61.061996 56.629 59.964996L56.629 59.964996L56.738 59.483994L56.738 59.483994L60.625 63.238007L60.625 63.238007L60.262 63.602005L60.262 63.602005L60.262 63.602005C 59.902 63.371002 59.652 63.238007 59.41 63.238007L59.41 63.238007L59.41 63.238007C 59.289 63.238007 59.051 63.238007 59.051 63.371002L59.051 63.371002L59.051 63.371002C 58.926 63.602005 58.684 63.733994 58.684 64.328L58.684 64.328L58.684 64.328C 58.32 65.050995 57.961 65.66 57.723 66.272995L57.723 66.272995L57.723 66.272995C 57.598 66.621 57.102 67.23399 56.738 67.604996L56.738 67.604996L56.738 67.604996C 55.773 68.937 54.441 69.77699 53.352 70.257996L53.352 70.257996L53.352 70.257996C 51.648 70.746 50.074 70.86301 48.133 70.507996L48.133 70.507996L48.133 70.507996C 46.793 70.15199 45.465 69.531006 44.25 68.57001L44.25 68.57001L44.25 68.57001C 42.797 67.23399 41.824 65.66 41.461 63.733994L41.461 63.733994L41.461 63.733994C 40.855 61.061996 41.582 58.520004 43.766 56.104996L43.766 56.104996L43.766 56.104996C 44.492 55.25 45.219 54.516006 46.074 53.918L46.074 53.918L46.074 53.918C 46.793 53.554993 47.77 52.945007 48.492 52.578003L48.492 52.578003L52.5 55.854996L52.5 55.854996L52.5 55.854996C 53.105 56.449005 53.715 56.820007 54.086 56.820007L54.086 56.820007L54.086 56.820007C 54.441 57.059006 55.043 56.574005 55.41 56.207z" stroke="none" fill="var(--color)" fill-rule="evenodd" />
    <path id=""  transform="matrix(1 0 0 -1 0 254)"  d="M69.844 53.554993C 70.328 53.793 70.816 53.554993 71.297 53.184006L71.297 53.184006L71.906 52.820007L71.906 52.820007L72.148 53.184006L72.148 53.184006L66.566 57.539L66.566 57.539L66.328 57.195007L66.328 57.195007L66.688 56.820007L66.688 56.820007L66.688 56.820007C 67.176 56.574005 67.293 56.207 67.539 55.854996L67.539 55.854996L67.539 55.128998L67.539 55.128998L67.539 55.128998C 67.539 54.886993 67.176 54.516006 66.566 53.793L66.566 53.793L59.41 44.945007L59.41 44.945007L59.41 44.945007C 59.051 44.343994 58.684 44.104996 58.32 44.104996L58.32 44.104996L58.32 44.104996C 57.961 43.979996 57.723 43.979996 57.598 44.104996L57.598 44.104996L57.598 44.104996C 57.355 44.343994 57.355 44.703003 57.598 45.065994L57.598 45.065994L57.598 45.065994C 57.723 45.785004 57.723 46.397995 57.723 46.647995L57.723 46.647995L57.723 46.647995C 57.723 47.016006 57.598 47.016006 57.355 47.253998L57.355 47.253998L57.355 47.253998C 57.102 47.608994 56.738 47.608994 56.375 47.608994L56.375 47.608994L56.375 47.608994C 56.02 47.608994 55.773 47.375 55.656 47.016006L55.656 47.016006L55.656 47.016006C 55.285 46.647995 55.043 46.272995 55.285 45.684006L55.285 45.684006L55.285 45.684006C 55.285 45.065994 55.773 44.457 56.375 44.104996L56.375 44.104996L56.375 44.104996C 56.984 43.496002 57.961 43.125 58.684 43.125L58.684 43.125L58.684 43.125C 59.652 43.125 60.387 43.496002 60.992 43.979996L60.992 43.979996L60.992 43.979996C 61.719 44.343994 62.559 44.945007 63.297 46.026993L63.297 46.026993L68.512 52.223007L68.512 52.223007L68.512 52.223007C 68.992 53.184006 69.48 53.554993 69.844 53.554993" stroke="none" fill="var(--color)" fill-rule="evenodd" />
    <path id=""  transform="matrix(1 0 0 -1 0 254)"  d="M75.543 50.511993L76.152 50.039L76.152 50.039L76.152 50.039C 76.516 49.914 76.758 49.668 76.879 49.311996L76.879 49.311996L76.879 49.311996C 77.121 49.061996 77.121 48.699005 77.121 48.582L77.121 48.582L77.121 48.582C 77.121 48.348007 76.758 47.729996 76.516 47.016006L76.516 47.016006L70.934 37.800995L70.934 37.800995L70.934 37.800995C 70.57 36.945007 70.207 36.468994 69.844 36.227005L69.844 36.227005L69.844 36.227005C 69.48 35.988007 68.875 36.227005 68.266 36.468994L68.266 36.468994L67.656 36.832L67.656 36.832L67.539 36.468994L67.539 36.468994L73.602 32.714996L73.602 32.714996L73.848 33.320007L73.848 33.320007L73.477 33.565994L73.477 33.565994L73.477 33.565994C 73.121 33.684006 72.871 34.046997 72.512 34.285004L72.512 34.285004L72.512 34.285004C 72.273 34.656006 72.273 34.897995 72.273 35.016006L72.273 35.016006L72.273 35.016006C 72.273 35.5 72.637 35.854996 73.121 36.602005L73.121 36.602005L78.457 45.785004L78.457 45.785004L78.457 45.785004C 79.066 46.647995 79.422 47.253998 79.539 47.375L79.539 47.375L79.539 47.375C 80.148 47.608994 80.754 47.375 81.363 47.016006L81.363 47.016006L81.734 46.772995L81.734 46.772995L81.859 47.253998L81.859 47.253998L75.906 50.645004z" stroke="none" fill="var(--color)" fill-rule="evenodd" />
    <path id=""  transform="matrix(1 0 0 -1 0 254)"  d="M106.832 37.550995L107.441 37.436996L107.441 37.436996L107.441 37.436996C 108.172 37.195007 108.531 36.945007 108.773 36.468994L108.773 36.468994L108.773 36.468994C 108.895 36.227005 108.895 35.5 108.531 34.522995L108.531 34.522995L106.957 27.983994L106.957 27.983994L106.957 27.983994C 106.594 26.184006 105.988 25.093994 105.625 24.229996L105.625 24.229996L105.625 24.229996C 105.137 23.75 104.527 23.261993 103.555 23.145004L103.555 23.145004L103.555 23.145004C 102.348 22.772995 101.621 22.772995 100.531 23.145004L100.531 23.145004L100.531 23.145004C 99.559 23.261993 98.953 23.5 98.59 24.104996L98.59 24.104996L98.59 24.104996C 97.98 24.477005 97.617 24.843994 97.379 25.440994L97.379 25.440994L97.379 25.440994C 97.262 26.059006 97.262 26.535004 97.379 27.503998L97.379 27.503998L97.379 27.503998C 97.379 28.354996 97.379 29.074005 97.617 29.686996L97.617 29.686996L99.559 36.832L99.559 36.832L99.559 36.832C 99.68 37.800995 99.922 38.171997 100.285 38.526993L100.285 38.526993L100.285 38.526993C 100.531 38.766006 101.012 38.891006 101.621 38.766006L101.621 38.766006L102.348 38.526993L102.348 38.526993L102.348 38.891006L102.348 38.891006L95.559 40.711L95.559 40.711L95.313 40.223007L95.313 40.223007L96.039 40.104996L96.039 40.104996L96.039 40.104996C 96.648 39.852005 97.016 39.733994 97.262 39.257996L97.262 39.257996L97.262 39.257996C 97.379 38.891006 97.379 38.289 97.262 37.436996L97.262 37.436996L95.559 31.011993L95.559 31.011993L95.559 31.011993C 95.07 29.074005 94.945 27.746002 94.945 27.022995L94.945 27.022995L94.945 27.022995C 95.07 25.809006 95.559 24.843994 96.285 24.104996L96.285 24.104996L96.285 24.104996C 97.016 23.145004 98.344 22.535004 100.043 21.929993L100.043 21.929993L100.043 21.929993C 101.621 21.565994 103.199 21.565994 104.164 21.929993L104.164 21.929993L104.164 21.929993C 105.254 22.535004 105.988 23.145004 106.594 23.863007L106.594 23.863007L106.594 23.863007C 107.195 24.718994 107.566 26.059006 107.93 27.503998L107.93 27.503998L109.625 34.046997L109.625 34.046997L109.625 34.046997C 109.871 35.016006 110.113 35.625 110.234 35.854996L110.234 35.854996L110.234 35.854996C 110.84 36.227005 111.449 36.468994 111.93 36.227005L111.93 36.227005L112.531 35.988007L112.531 35.988007L112.781 36.468994L112.781 36.468994L106.957 37.934006z" stroke="none" fill="var(--color)" fill-rule="evenodd" />
    <path id=""  transform="matrix(1 0 0 -1 0 254)"  d="M127.699 35.625L128.305 35.625L128.305 35.625L128.305 35.625C 129.027 35.625 129.395 35.5 129.641 35.016006L129.641 35.016006L129.641 35.016006C 129.766 34.897995 130.004 34.046997 130.004 33.203003L130.004 33.203003L129.641 23.5L129.641 23.5L120.063 36.468994L120.063 36.468994L115.445 36.602005L115.445 36.602005L115.445 35.988007L115.445 35.988007L115.445 35.988007C 116.055 35.988007 116.422 35.988007 116.543 35.854996L116.543 35.854996L116.543 35.854996C 117.023 35.625 117.387 35.625 117.508 35.5L117.508 35.5L117.508 35.5C 117.875 35.261993 118.121 34.897995 118.723 34.046997L118.723 34.046997L118.359 22.772995L118.359 22.772995L118.359 22.772995C 118.359 21.815994 118.121 21.199005 117.875 20.835999L117.875 20.835999L117.875 20.835999C 117.508 20.464996 117.145 20.227005 116.422 20.227005L116.422 20.227005L115.809 20.227005L115.809 20.227005L115.809 19.878998L115.809 19.878998L121.508 19.641006L121.508 19.641006L121.508 19.992004L121.508 19.992004L121.031 19.992004L121.031 19.992004L121.031 19.992004C 120.418 19.992004 119.816 20.464996 119.691 20.598007L119.691 20.598007L119.691 20.598007C 119.453 20.964996 119.203 21.565994 119.453 22.772995L119.453 22.772995L119.691 32.714996L119.691 32.714996L130.246 19.020004L130.246 19.020004L130.609 19.020004L130.609 19.020004L130.973 33.203003L130.973 33.203003L130.973 33.203003C 130.973 34.046997 131.094 34.656006 131.336 34.897995L131.336 34.897995L131.336 34.897995C 131.699 35.261993 132.063 35.5 132.902 35.5L132.902 35.5L133.398 35.5L133.398 35.5L133.398 35.854996L133.398 35.854996L127.699 36.227005z" stroke="none" fill="var(--color)" fill-rule="evenodd" />
    <path id=""  transform="matrix(1 0 0 -1 0 254)"  d="M146.5 21.929993L145.285 21.929993L145.285 21.929993L145.285 21.929993C 144.918 22.179993 144.797 22.179993 144.555 22.293L144.555 22.293L144.555 22.293C 144.555 22.772995 144.434 23.261993 144.191 24.104996L144.191 24.104996L142.254 34.656006L142.254 34.656006L142.254 34.656006C 141.891 35.625 141.891 36.227005 142.137 36.602005L142.137 36.602005L142.137 36.602005C 142.492 36.945007 142.863 37.195007 143.465 37.436996L143.465 37.436996L143.953 37.550995L143.953 37.550995L143.953 37.934006L143.953 37.934006L136.918 36.602005L136.918 36.602005L137.035 36.227005L137.035 36.227005L138.859 36.227005L138.859 36.227005L138.859 36.227005C 138.98 35.988007 139.219 35.988007 139.344 35.854996L139.344 35.854996L139.344 35.854996C 139.586 35.625 139.586 34.897995 139.824 34.046997L139.824 34.046997L141.891 23.5L141.891 23.5L141.891 23.5C 142.137 22.535004 142.137 21.929993 141.891 21.565994L141.891 21.565994L141.891 21.565994C 141.891 21.199005 141.277 20.964996 140.551 20.835999L140.551 20.835999L140.188 20.598007L140.188 20.598007L140.188 20.227005L140.188 20.227005L147.102 21.565994L147.102 21.565994L147.102 21.929993z" stroke="none" fill="var(--color)" fill-rule="evenodd" />
    <path id=""  transform="matrix(1 0 0 -1 0 254)"  d="M160.453 42.761993L160.691 42.156006L160.691 42.156006L160.816 42.397995L160.816 42.397995L160.816 42.397995C 161.418 42.397995 161.781 42.397995 162.262 42.156006L162.262 42.156006L162.262 42.156006C 162.387 42.156006 162.633 42.043 162.633 41.800995L162.633 41.800995L162.633 41.800995C 162.75 41.436996 162.75 40.711 162.75 39.733994L162.75 39.733994L162.262 29.315994L162.262 29.315994L155.109 37.195007L155.109 37.195007L155.109 37.195007C 154.383 37.934006 154.02 38.289 154.02 38.766006L154.02 38.766006L154.02 38.766006C 153.781 39.132996 153.781 39.257996 154.02 39.492004L154.02 39.492004L154.02 39.492004C 154.137 39.852005 154.5 40.104996 155.352 40.464996L155.352 40.464996L155.109 40.828003L155.109 40.828003L148.801 38.526993L148.801 38.526993L148.801 38.171997L148.801 38.171997L148.801 38.171997C 149.41 38.289 149.773 38.289 150.129 38.289L150.129 38.289L150.129 38.289C 150.379 38.289 150.734 38.171997 151.105 38.171997L151.105 38.171997L151.105 38.171997C 151.105 37.934006 151.469 37.800995 152.078 36.945007L152.078 36.945007L162.633 25.440994L162.633 25.440994L162.988 25.684006L162.988 25.684006L163.965 40.828003L163.965 40.828003L163.965 40.828003C 163.965 41.800995 164.086 42.397995 164.324 43.007996L164.324 43.007996L164.324 43.007996C 164.691 43.375 164.941 43.738007 165.418 43.979996L165.418 43.979996L165.301 44.343994z" stroke="none" fill="var(--color)" fill-rule="evenodd" />
    <path id=""  transform="matrix(1 0 0 -1 0 254)"  d="M186.16 43.125C 186.41 42.043 186.16 41.061996 186.16 40.464996L186.16 40.464996L186.16 40.464996C 186.039 39.852005 185.797 39.257996 185.559 39.132996L185.559 39.132996L185.559 39.132996C 185.188 38.766006 184.832 38.289 183.852 37.800995L183.852 37.800995L181.547 36.227005L181.547 36.227005L181.547 36.227005C 181.184 35.988007 180.941 35.988007 180.578 35.988007L180.578 35.988007L180.578 35.988007C 180.457 35.854996 180.457 35.988007 180.219 35.988007L180.219 35.988007L180.219 35.988007C 180.09 36.227005 179.852 36.468994 179.488 37.195007L179.488 37.195007L176.457 41.554993L176.457 41.554993L179.488 43.738007L179.488 43.738007L179.488 43.738007C 180.09 44.104996 180.457 44.343994 180.941 44.343994L180.941 44.343994L180.941 44.343994C 181.184 44.343994 181.547 44.343994 181.91 44.104996L181.91 44.104996L181.91 44.104996C 182.156 44.104996 182.52 43.496002 183.125 43.007996L183.125 43.007996L183.254 43.375L183.254 43.375L180.219 48.223007L180.219 48.223007L179.852 47.729996L179.852 47.729996L179.852 47.729996C 180.457 47.016006 180.457 46.397995 180.457 45.785004L180.457 45.785004L180.457 45.785004C 180.219 45.440994 179.852 44.945007 179.129 44.343994L179.129 44.343994L175.969 42.397995L175.969 42.397995L172.336 47.973007L172.336 47.973007L176.211 50.511993L176.211 50.511993L176.211 50.511993C 176.938 50.895004 177.309 51.238007 177.797 51.238007L177.797 51.238007L177.797 51.238007C 178.16 51.488007 178.523 51.238007 178.879 50.996002L178.879 50.996002L178.879 50.996002C 179.242 50.895004 179.852 50.645004 180.457 49.914L180.457 49.914L180.816 50.039L180.816 50.039L178.637 53.184006L178.637 53.184006L167.969 46.272995L167.969 46.272995L168.207 45.684006L168.207 45.684006L168.695 46.026993L168.695 46.026993L168.695 46.026993C 169.059 46.397995 169.664 46.647995 170.027 46.397995L170.027 46.397995L170.027 46.397995C 170.512 46.397995 170.883 45.785004 171.363 44.945007L171.363 44.945007L177.309 35.988007L177.309 35.988007L177.309 35.988007C 177.797 35.261993 178.16 34.897995 178.16 34.522995L178.16 34.522995L178.16 34.522995C 178.16 34.285004 178.16 34.046997 177.91 33.684006L177.91 33.684006L177.91 33.684006C 177.797 33.320007 177.547 33.203003 177.184 32.953003L177.184 32.953003L176.813 32.582L176.813 32.582L176.938 32.227005L176.938 32.227005L187.738 39.132996L187.738 39.132996L186.523 43.496002z" stroke="none" fill="var(--color)" fill-rule="evenodd" />
    <path id=""  transform="matrix(1 0 0 -1 0 254)"  d="M204.355 55.128998C 203.867 54.886993 202.652 54.886993 201.563 55.25L201.563 55.25L195.617 56.207L195.617 56.207L195.617 56.207C 196.469 57.421997 196.957 58.520004 196.957 59.483994L196.957 59.483994L196.957 59.483994C 196.715 60.690994 196.344 61.410004 195.617 62.270004L195.617 62.270004L195.617 62.270004C 195.016 62.757996 194.281 63.371002 193.313 63.371002L193.313 63.371002L192.703 63.371002L192.703 63.371002L192.703 63.371002C 192.34 63.371002 191.738 63.371002 191.371 63.238007L191.371 63.238007L191.125 62.996002L191.125 62.996002L191.125 61.311996L191.125 61.311996L191.371 61.311996L191.371 61.311996L191.371 61.311996C 192.34 61.311996 193.066 60.811996 193.801 60.086L193.801 60.086L193.801 60.086C 194.652 59.358994 194.766 58.520004 194.766 57.421997L194.766 57.421997L194.766 57.421997C 194.652 56.449005 194.039 55.25 192.836 54.156006L192.836 54.156006L192.836 54.156006C 192.836 54.156006 192.703 54.156006 192.703 53.918L192.703 53.918L192.703 53.918C 192.703 53.918 192.461 53.793 192.34 53.793L192.34 53.793L191.125 54.886993L191.125 54.886993L191.125 51.488007L191.125 51.488007L194.652 47.973007L194.652 47.973007L194.652 47.973007C 195.133 47.375 195.617 46.772995 195.617 46.647995L195.617 46.647995L195.617 46.647995C 195.742 46.026993 195.617 45.440994 195.016 44.945007L195.016 44.945007L194.652 44.457L194.652 44.457L194.766 44.104996L194.766 44.104996L199.984 49.311996L199.984 49.311996L199.738 49.554993L199.738 49.554993L199.262 49.061996L199.262 49.061996L199.262 49.061996C 198.77 48.582 198.41 48.582 197.914 48.582L197.914 48.582L197.914 48.582C 197.441 48.582 196.957 48.949005 196.344 49.668L196.344 49.668L192.836 53.184006L192.836 53.184006L192.836 53.184006C 193.066 53.184006 193.066 53.309006 193.313 53.309006L193.313 53.309006L193.313 53.309006C 193.313 53.554993 193.43 53.554993 193.43 53.554993L193.43 53.554993L193.43 53.554993C 193.68 53.793 193.801 54.156006 194.281 54.285004L194.281 54.285004L203.621 52.820007L203.621 52.820007L206.906 55.727005L206.906 55.727005L206.527 56.104996L206.527 56.104996L206.527 56.104996C 205.684 55.492004 204.957 55.128998 204.355 55.128998M191.125 62.996002L191.125 61.311996L191.125 61.311996L191.008 61.311996L191.008 61.311996L191.008 61.311996C 190.398 61.311996 190.043 61.061996 189.43 60.690994L189.43 60.690994L189.43 60.690994C 189.191 60.453003 189.066 60.324005 188.828 60.086L188.828 60.086L188.828 60.086C 188.469 59.964996 188.102 59.358994 187.738 58.757996L187.738 58.757996L191.125 54.886993L191.125 54.886993L191.125 51.488007L191.125 51.488007L187.129 55.727005L187.129 55.727005L187.129 55.727005C 186.41 56.449005 185.797 57.059006 185.559 57.059006L185.559 57.059006L185.559 57.059006C 185.063 57.059006 184.578 56.820007 184.098 56.449005L184.098 56.449005L183.727 55.854996L183.727 55.854996L183.254 56.207L183.254 56.207L187.738 60.453003L187.738 60.453003L187.738 60.453003C 189.066 61.656006 190.043 62.395004 190.77 62.757996L190.77 62.757996L190.77 62.757996C 191.008 62.996002 191.125 62.996002 191.125 62.996002" stroke="none" fill="var(--color)" fill-rule="evenodd" />
    <path id=""  transform="matrix(1 0 0 -1 0 254)"  d="M214.297 73.168C 213.813 73.543 213.207 73.781006 212.598 73.781006L212.598 73.781006L212.598 73.781006C 211.871 74.01601 211.266 73.781006 210.539 73.543L210.539 73.543L210.539 73.543C 209.805 73.543 208.598 73.059006 207.016 72.203L207.016 72.203L207.016 72.203C 205.199 71.23399 203.867 70.746 203.016 70.746L203.016 70.746L203.016 70.746C 202.406 70.507996 202.043 70.746 201.563 70.86301L201.563 70.86301L201.563 70.86301C 201.078 71.48399 200.711 71.836 200.59 72.57001L200.59 72.57001L200.59 72.57001C 200.59 73.418 200.711 74.147995 201.078 74.992004L201.078 74.992004L201.078 74.992004C 201.563 75.468994 202.043 75.836 202.895 76.324005L202.895 76.324005L202.895 76.324005C 203.621 76.687 204.355 76.809006 205.199 76.687L205.199 76.687L205.199 76.687C 205.926 76.687 206.652 76.437 207.625 75.836L207.625 75.836L207.988 76.324005L207.988 76.324005L203.258 79.586L203.258 79.586L203.016 79.229996L203.016 79.229996L203.016 79.229996C 203.258 78.992004 203.379 78.617004 203.379 78.617004L203.379 78.617004L203.379 78.020004L203.379 78.020004L203.379 78.020004C 203.258 77.785 202.895 77.66 202.406 77.297L202.406 77.297L202.406 77.297C 201.563 76.687 200.953 76.074005 200.352 75.352005L200.352 75.352005L200.352 75.352005C 199.625 74.379 199.262 73.059006 199.375 71.836L199.375 71.836L199.375 71.836C 199.625 70.507996 200.234 69.531006 201.078 68.80499L201.078 68.80499L201.078 68.80499C 201.68 68.57001 202.289 68.199005 202.895 68.199005L202.895 68.199005L202.895 68.199005C 203.621 67.957 204.23 68.199005 204.957 68.332L204.957 68.332L204.957 68.332C 205.684 68.57001 206.906 69.175995 208.352 69.77699L208.352 69.77699L208.352 69.77699C 209.805 70.507996 210.656 70.86301 211.145 71.10899L211.145 71.10899L211.145 71.10899C 211.629 71.23399 212.234 71.23399 212.598 71.23399L212.598 71.23399L212.598 71.23399C 213.207 71.23399 213.449 71.10899 213.813 70.746L213.813 70.746L213.813 70.746C 214.539 70.257996 214.898 69.77699 214.898 68.937L214.898 68.937L214.898 68.937C 214.898 68.199005 214.785 67.23399 214.172 66.51601L214.172 66.51601L214.172 66.51601C 213.57 65.66 212.961 65.297 212.234 64.940994L212.234 64.940994L212.234 64.940994C 211.516 64.578 210.902 64.328 210.168 64.328L210.168 64.328L210.168 64.328C 209.328 64.328 208.598 64.690994 207.508 65.050995L207.508 65.050995L207.262 64.940994L207.262 64.940994L211.871 61.410004L211.871 61.410004L212.117 61.781006L212.117 61.781006L212.117 61.781006C 211.871 62.270004 211.629 62.395004 211.629 62.636993L211.629 62.636993L211.629 62.636993C 211.629 62.757996 211.629 62.757996 211.871 62.996002L211.871 62.996002L211.871 62.996002C 211.871 63.238007 212.234 63.602005 212.961 64.215L212.961 64.215L212.961 64.215C 213.57 64.578 214.172 64.940994 214.172 65.050995L214.172 65.050995L214.172 65.050995C 214.539 65.539 214.898 65.66 215.141 66.272995L215.141 66.272995L215.141 66.272995C 216.113 67.47301 216.23 68.80499 216.23 70.15199L216.23 70.15199L216.23 70.15199C 215.875 71.48399 215.262 72.440994 214.297 73.168" stroke="none" fill="var(--color)" fill-rule="evenodd" />
    <path id=""  transform="matrix(1 0 0 -1 0 254)"  d="M224.367 83.957C 224.117 83.593994 224 83.468994 223.512 83.23801L223.512 83.23801L223.512 83.23801C 223.391 82.98801 223.152 82.98801 222.789 82.98801L222.789 82.98801L222.789 82.98801C 222.547 82.98801 222.059 83.23801 221.457 83.593994L221.457 83.593994L211.871 88.42999L211.871 88.42999L211.871 88.42999C 210.902 89.043 210.289 89.406006 210.168 89.531006L210.168 89.531006L210.168 89.531006C 209.93 90.125 209.93 90.504 210.289 91.09801L210.289 91.09801L210.539 91.703L210.539 91.703L210.168 91.828L210.168 91.828L207.016 85.52699L207.016 85.52699L207.508 85.285L207.508 85.285L207.625 85.897995L207.625 85.897995L207.625 85.897995C 207.871 86.254 207.988 86.5 208.352 86.729996L208.352 86.729996L208.352 86.729996C 208.598 86.85899 208.965 87.104996 209.203 87.104996L209.203 87.104996L209.203 87.104996C 209.328 86.85899 209.93 86.729996 210.656 86.254L210.656 86.254L220.242 81.520004L220.242 81.520004L220.242 81.520004C 221.211 81.050995 221.695 80.687 221.82 80.324005L221.82 80.324005L221.82 80.324005C 222.059 79.953 222.059 79.34 221.695 78.746L221.695 78.746L221.457 78.257996L221.457 78.257996L221.82 78.020004L221.82 78.020004L225.094 84.32001L225.094 84.32001L224.727 84.565994z" stroke="none" fill="var(--color)" fill-rule="evenodd" />
    <path id=""  transform="matrix(1 0 0 -1 0 254)"  d="M230.063 101.156006C 229.941 100.543 229.699 100.17999 229.336 99.949005L229.336 99.949005L229.336 99.949005C 228.973 99.815994 228.371 99.815994 227.398 100.17999L227.398 100.17999L215.141 103.457L215.141 103.457L215.754 105.76199L215.754 105.76199L215.754 105.76199C 215.875 106.35899 216.113 106.84801 216.48 107.332L216.48 107.332L216.48 107.332C 216.844 107.457 217.215 107.80499 217.816 107.80499L217.816 107.80499L217.816 107.80499C 218.055 108.050995 218.543 108.050995 219.145 107.80499L219.145 107.80499L219.387 108.300995L219.387 108.300995L215.754 109.270004L215.754 109.270004L212.117 95.94501L212.117 95.94501L215.754 94.73801L215.754 94.73801L215.875 95.336L215.875 95.336L215.875 95.336C 215.141 95.582 214.785 95.94501 214.297 96.300995L214.297 96.300995L214.297 96.300995C 213.938 96.672 213.813 97.035 213.813 97.52699L213.813 97.52699L213.813 97.52699C 213.813 97.882996 213.813 98.48399 213.938 99.203L213.938 99.203L214.539 101.156006L214.539 101.156006L226.785 97.882996L226.785 97.882996L226.785 97.882996C 227.758 97.629 228.125 97.270004 228.488 97.035L228.488 97.035L228.488 97.035C 228.727 96.672 228.727 96.07001 228.488 95.582L228.488 95.582L228.488 94.979996L228.488 94.979996L228.973 94.73801L228.973 94.73801L230.668 101.757996L230.668 101.757996L230.313 101.757996z" stroke="none" fill="var(--color)" fill-rule="evenodd" />
    <path id=""  transform="matrix(1 0 0 -1 0 254)"  d="M233.941 124.289L233.703 123.684006L233.703 123.684006L233.703 123.684006C 233.703 123.082 233.578 122.468994 233.094 122.352005L233.094 122.352005L233.094 122.352005C 232.977 122.121 232.129 121.871 231.285 122.121L231.285 122.121L227.031 122.352005L227.031 122.352005L221.094 126.711L221.094 126.711L221.094 126.711C 220.242 127.32 219.758 127.918 219.516 128.289L219.516 128.289L219.516 128.289C 219.145 128.531 218.906 128.89499 218.781 129.496L218.781 129.496L218.781 129.496C 218.543 129.85901 218.543 129.97699 218.543 130.34799L218.543 130.34799L218.543 130.59799L218.543 130.59799L218.055 130.59799L218.055 130.59799L217.578 124.76601L217.578 124.76601L218.18 124.76601L218.18 124.76601L218.18 124.76601C 218.18 125.254 218.18 125.625 218.418 125.754L218.418 125.754L218.418 125.754C 218.543 126 218.543 126.105 218.781 126.105L218.781 126.105L218.781 126.105C 218.906 126.348 219.145 126.348 219.387 126.348L219.387 126.348L219.387 126.348C 219.879 126.348 220.242 126 221.094 125.625L221.094 125.625L226.066 121.871L226.066 121.871L220.484 118.836L220.484 118.836L220.484 118.836C 219.516 118.47301 219.145 118.10899 218.781 118.10899L218.781 118.10899L218.781 118.10899C 218.418 118.23399 218.18 118.47301 218.055 118.836L218.055 118.836L218.055 118.836C 217.816 119.078 217.816 119.440994 217.816 119.80499L217.816 119.80499L217.816 120.17999L217.816 120.17999L217.445 120.17999L217.445 120.17999L216.844 113.01601L216.844 113.01601L217.215 113.01601L217.215 113.01601L217.215 113.01601C 217.215 113.51199 217.445 113.629 217.445 113.867004L217.445 113.867004L217.445 113.867004C 217.816 114.367004 218.055 114.832 218.418 114.957L218.418 114.957L218.418 114.957C 218.543 115.199005 219.145 115.332 219.879 115.925995L219.879 115.925995L227.148 120.050995L227.148 120.050995L231.039 119.55499L231.039 119.55499L231.039 119.55499C 232.004 119.55499 232.613 119.55499 232.738 119.199005L232.738 119.199005L232.738 119.199005C 233.344 119.078 233.578 118.47301 233.344 117.742004L233.344 117.742004L233.344 117.145004L233.344 117.145004L233.703 117.145004L233.703 117.145004L234.309 124.289z" stroke="none" fill="var(--color)" fill-rule="evenodd" />
			</g>
		</g>
	</g>
</g>
</svg>