<?xml version="1.0" standalone="no"?>
<!DOCTYPE svg PUBLIC "-//W3C//DTD SVG 1.1//EN" "http://www.w3.org/Graphics/SVG/1.1/DTD/svg11.dtd">
<svg xmlns="http://www.w3.org/2000/svg" xmlns:xlink="http://www.w3.org/1999/xlink" version="1.1" id="body_3" width="399" height="104">

<defs>
    <clipPath  id="1">

    <path id=""  clip-rule="evenodd" transform="matrix(1 0 0 1 0 0)"  d="M0 78L0 0L0 0L299 0L299 0L299 78L299 78L0 78z" />    </clipPath>
    <clipPath  id="2">

    <path id=""  clip-rule="evenodd" transform="matrix(1 0 0 1 0 0)"  d="M0 78L299 78L299 78L299 0L299 0L0 0z" />    </clipPath>
    <clipPath  id="3">

    <path id=""  clip-rule="evenodd" transform="matrix(1 0 0 1 0 0)"  d="M0 77L299 77L299 77L299 0L299 0L0 0z" />    </clipPath>
</defs>

<g transform="matrix(1.3333 0 0 1.3333 0 0)">
	<g clip-path="url(#1)" >
		<g clip-path="url(#2)" >
			<g clip-path="url(#3)" >
    <path id=""  transform="matrix(1 0 0 -1 0 78)"  d="M203.074 26.550999C 201.66 22.855 205.02 16.945 210.055 14.272999L210.055 14.272999L210.055 14.272999C 214.516 11.905998 215.508 12.535004 215.508 17.734001L215.508 17.734001L215.508 21.965L215.508 21.965L211.145 24.800999L211.145 24.800999L211.145 24.800999C 206.566 27.772999 203.777 28.379002 203.074 26.550999M104.145 33.445C 101.164 25.933998 99.652 11.792999 101.648 10.137001L101.648 10.137001L101.648 10.137001C 103.434 8.655998 104.023 9.655998 104.555 15.066002L104.555 15.066002L104.555 15.066002C 105.738 27.07 111.594 30.02 111.184 18.402L111.184 18.402L111.184 18.402C 111.117 16.504002 111.23 14.780998 111.434 14.574001L111.434 14.574001L111.434 14.574001C 111.852 14.155998 116.625 19.789001 118.625 23.058998L118.625 23.058998L118.625 23.058998C 126.148 35.363 130.094 27.772999 123.902 12.914001L123.902 12.914001L123.902 12.914001C 118.652 0.31199646 122.5 1.6559982 128.629 14.566002L128.629 14.566002L128.629 14.566002C 135.32 28.652 127.785 42.852 120.66 29.578L120.66 29.578L120.66 29.578C 118.109 24.832 116.215 24.262001 116.215 28.245998L116.215 28.245998L116.215 28.245998C 116.215 32.121 115.41 32.316 111.566 29.379002L111.566 29.379002L111.566 29.379002C 107.621 26.370998 106.785 26.812 106.898 31.84L106.898 31.84L106.898 31.84C 106.992 35.895 105.465 36.785 104.145 33.445M12.637 36.141C 9.496 33 10.133 28.844002 14.367 24.890999L14.367 24.890999L14.367 24.890999C 16.625 22.780998 18.328 23.808998 18.328 27.285L18.328 27.285L18.328 27.285C 18.328 31 20.203 31.897999 21.496 28.800999L21.496 28.800999L21.496 28.800999C 22.078 27.41 22.551 25.98 22.551 25.620998L22.551 25.620998L22.551 25.620998C 22.551 23.277 27.836 24.835999 29.902 27.789001L29.902 27.789001L29.902 27.789001C 34.566 34.445 18.645 42.148 12.637 36.141M278.539 40.852C 277.762 40.395 274.277 39.629 270.793 39.145L270.793 39.145L270.793 39.145C 263.789 38.18 261.988 36.961 261.988 33.191L261.988 33.191L261.988 33.191C 261.988 30.41 266.789 30.227001 270.371 32.871L270.371 32.871L270.371 32.871C 273.234 34.98 274.664 34.547 274.664 31.57L274.664 31.57L274.664 31.57C 274.664 27.953 273.316 26.805 268.262 26.112999L268.262 26.112999L268.262 26.112999C 258.609 24.797 253.867 20.223 260.773 18.887001L260.773 18.887001L260.773 18.887001C 263.758 18.312 264.594 18.457 268.227 20.195L268.227 20.195L268.227 20.195C 274.688 23.280998 276.375 22.125 274.609 15.816002L274.609 15.816002L274.609 15.816002C 273.137 10.558998 270.297 7.9179993 266.117 7.9179993L266.117 7.9179993L266.117 7.9179993C 262.094 7.9179993 261.258 6.866997 263.078 4.094002L263.078 4.094002L263.078 4.094002C 267.109 -2.0630035 274.621 3.671997 278.84 16.129002L278.84 16.129002L280.707 21.652L280.707 21.652L284.48 22.004002L284.48 22.004002L284.48 22.004002C 291.633 22.672 291.219 26.074001 283.906 26.737999L283.906 26.737999L283.906 26.737999C 277.797 27.293 276.738 30.609001 281.805 33.324L281.805 33.324L281.805 33.324C 283.441 34.199 283.559 37.957 282.02 40.156L282.02 40.156L282.02 40.156C 280.77 41.937 280.484 41.996 278.539 40.852M80.078 47.605C 79.813 47.34 79.594 45.457 79.594 43.426L79.594 43.426L79.594 43.426C 79.594 37.918 77.949 30.397999 74.672 20.945L74.672 20.945L74.672 20.945C 71.5 11.789001 71.254 7.734001 73.652 4.078003L73.652 4.078003L73.652 4.078003C 76.266 0.08999634 78.891 5.2070007 78.891 14.292999L78.891 14.292999L78.891 14.292999C 78.891 17.199001 79.461 20.727001 80.375 23.495998L80.375 23.495998L80.375 23.495998C 82.871 31.030998 82.633 50.16 80.078 47.605M18.555 51.09C 16.582 50.707 15.238 49.078 15.762 47.715L15.762 47.715L15.762 47.715C 16.273 46.383 24.637 46.203 25.934 47.496002L25.934 47.496002L25.934 47.496002C 28.598 50.164 24.371 52.223 18.555 51.09M130.039 53.164C 125.84 49.668 125.859 48.152 130.168 43.965L130.168 43.965L130.168 43.965C 137.074 37.25 145.605 34.402 149.527 37.504L149.527 37.504L149.527 37.504C 153.254 40.453 152.086 41.746 143.051 44.676L143.051 44.676L143.051 44.676C 133.477 47.777 132.988 48.141 135.215 50.512L135.215 50.512L135.215 50.512C 139.258 54.812 134.777 57.109 130.039 53.164M84.277 58.961C 84.039 57.211 83.375 54.875 82.805 53.77L82.805 53.77L82.805 53.77C 81.043 50.371002 83.824 49.664 86.891 52.734L86.891 52.734L86.891 52.734C 90.156 55.996002 89.164 62.145 85.371 62.145L85.371 62.145L85.371 62.145C 85.008 62.145 84.52 60.711 84.277 58.961M33.371 68.137C 32.367 65.516 15.184 64.332 11.652 66.645004L11.652 66.645004L11.652 66.645004C 7.371 69.449 3.695 67.477 1.707 61.301003L1.707 61.301003L1.707 61.301003C -0.125 55.609 -0.688 11.273003 1.047 9.355003L1.047 9.355003L1.047 9.355003C 2.707 7.5230026 4.941 7.0390015 4.957 8.512001L4.957 8.512001L4.957 8.512001C 5.152 26.465 7.117 46.281 9.273 52.039L9.273 52.039L9.273 52.039C 11.027 56.73 11.934 57.41 16.781 57.664L16.781 57.664L16.781 57.664C 18.988 57.777 23.914 58.516 27.727 59.305L27.727 59.305L27.727 59.305C 35.527 60.91 35.445 60.926003 37.313 57.27L37.313 57.27L37.313 57.27C 39.484 53.012 40.367 45.965 40 35.816L40 35.816L40 35.816C 39.57 23.862999 38.621 21.300999 34.637 21.300999L34.637 21.300999L34.637 21.300999C 31.074 21.300999 30.707 20.324001 32.066 14.473L32.066 14.473L32.066 14.473C 33.992 6.1640015 35.523 6.9020004 41.789 19.155998L41.789 19.155998L41.789 19.155998C 48.547 32.379 48.023 59.371002 40.871 66.527L40.871 66.527L40.871 66.527C 38.012 69.387 34.168 70.211 33.371 68.137M198.348 69.57C 195.086 66.051 190.867 56.516 190.395 51.582L190.395 51.582L190.395 51.582C 189.68 44.168 189.625 44.102 183.727 43.523L183.727 43.523L183.727 43.523C 176.25 42.785 171.848 39.543 171.848 34.773L171.848 34.773L171.848 34.773C 171.848 32.559 177.098 32.695 181.707 35.031L181.707 35.031L181.707 35.031C 189.27 38.863 189.363 38.25 183.23 25.004002L183.23 25.004002L183.23 25.004002C 177.602 12.851997 177.094 11.230003 178.535 10.035004L178.535 10.035004L178.535 10.035004C 181.289 7.746002 192.613 22.675999 194.371 30.91L194.371 30.91L194.371 30.91C 195.93 38.238 195.063 37.496 202.094 37.496L202.094 37.496L202.094 37.496C 208.641 37.496 210.566 38.266 210.59 40.891L210.59 40.891L210.59 40.891C 210.594 41.543 210.789 42.781 211.02 43.648L211.02 43.648L211.02 43.648C 211.625 45.906 209.672 46.402 207.176 44.621L207.176 44.621L207.176 44.621C 205.055 43.109 198.949 42.398 197.23 43.461L197.23 43.461L197.23 43.461C 195.973 44.238 196.715 48.145 200.082 58.535L200.082 58.535L200.082 58.535C 203.785 69.941 203.047 74.641 198.348 69.57M87.027 71.141C 85.426 68.852 85.676 67.223 87.992 64.906L87.992 64.906L87.992 64.906C 91.59 61.309 94.914 62.355 92.621 66.371L92.621 66.371L92.621 66.371C 92.07 67.336 91.605 69.16 91.59 70.418L91.59 70.418L91.59 70.418C 91.559 73.246 88.809 73.684 87.027 71.141M111.285 76.156C 106.074 73.039 100.719 66.488 100.719 63.23L100.719 63.23L100.719 63.23C 100.719 61.02 105.574 62.406 110.508 66.023L110.508 66.023L110.508 66.023C 112.73 67.652 116.125 68.336 117.109 67.352L117.109 67.352L117.109 67.352C 117.82 66.641 116.258 63.391 113.34 59.523003L113.34 59.523003L113.34 59.523003C 111.816 57.503998 110.324 54.68 110.027 53.253998L110.027 53.253998L110.027 53.253998C 108.969 48.16 105.727 48.453 104.129 53.785L104.129 53.785L104.129 53.785C 102.863 58.016 101.699 58.543 100.27 55.543L100.27 55.543L100.27 55.543C 99.223 53.351997 99.191 52.676003 100.004 50.211L100.004 50.211L100.004 50.211C 101.129 46.805 99.605 44.109 93.691 39.039L93.691 39.039L93.691 39.039C 87.395 33.641 86.063 28.183998 90.941 27.777L90.941 27.777L90.941 27.777C 94.582 27.473 96.902 29.734001 101.402 37.969L101.402 37.969L101.402 37.969C 106.023 46.43 109.367 50.172 112.305 50.172L112.305 50.172L112.305 50.172C 113.563 50.172 112.328 46.773003 110.227 44.445L110.227 44.445L110.227 44.445C 107.418 41.336 106.883 38.199 109.16 38.199L109.16 38.199L109.16 38.199C 110.242 38.199 111.359 39.871 114.09 45.566L114.09 45.566L114.09 45.566C 119.016 55.859 121.84 56.687 121.852 47.836L121.852 47.836L121.852 47.836C 121.859 41.477 123.973 37.262 126.785 38L126.785 38L126.785 38C 129.27 38.648 129.234 40.945 126.703 43.559L126.703 43.559L126.703 43.559C 124.676 45.648 124.344 46.523003 124.098 50.363L124.098 50.363L123.816 54.773003L123.816 54.773003L126.293 55.953L126.293 55.953L126.293 55.953C 128.789 57.145 130.254 59.652 129.121 60.789L129.121 60.789L129.121 60.789C 128.77 61.137 126.496 60.047 123.844 58.25L123.844 58.25L123.844 58.25C 118.57 54.684 115.07 53.594 114.41 55.312L114.41 55.312L114.41 55.312C 113.723 57.105 115.309 59.137 119.734 62.145L119.734 62.145L119.734 62.145C 123.594 64.766 125.367 66.711 125.367 68.316L125.367 68.316L125.367 68.316C 125.367 68.664 123.863 69.242 122.023 69.598L122.023 69.598L122.023 69.598C 118.453 70.285 117.922 71.582 119.383 76.051L119.383 76.051L119.383 76.051C 120.098 78.25 114.895 78.316 111.285 76.156M285.578 77.777C 284.805 77.609 282.832 76.242 281.195 74.738L281.195 74.738L281.195 74.738C 277.902 71.715 275.367 71.137 275.367 73.41L275.367 73.41L275.367 73.41C 275.367 74.332 274.898 74.82 274.008 74.82L274.008 74.82L274.008 74.82C 273.258 74.82 272.445 74.187 272.199 73.41L272.199 73.41L272.199 73.41C 271.574 71.437 268.324 71.457 268.324 73.434L268.324 73.434L268.324 73.434C 268.324 76.723 264.648 75.695 263.762 72.156L263.762 72.156L263.762 72.156C 263.5 71.113 262.914 70.027 262.465 69.75L262.465 69.75L262.465 69.75C 261.895 69.398 262.07 68.93 263.039 68.219L263.039 68.219L263.039 68.219C 264.418 67.211 264.418 67.152 263.121 63.328L263.121 63.328L263.121 63.328C 261.625 58.934 261.996 55.57 263.934 55.941L263.934 55.941L263.934 55.941C 264.719 56.094 265.293 57.18 265.629 59.145L265.629 59.145L265.629 59.145C 266.215 62.586 268.512 68.078 269.66 68.789L269.66 68.789L269.66 68.789C 271.102 69.68 271.328 67.074 270.172 62.953L270.172 62.953L270.172 62.953C 269.543 60.715 269.043 57.793 269.059 56.465L269.059 56.465L269.086 54.047L269.086 54.047L272.215 57.445L272.215 57.445L272.215 57.445C 275.078 60.559 276 62.527 277.105 67.934L277.105 67.934L277.105 67.934C 277.547 70.09 278.758 70.898 282.586 71.59L282.586 71.59L282.586 71.59C 286.492 72.297 286.098 70.613 280.332 61.941L280.332 61.941L280.332 61.941C 273.18 51.187 270.699 49.562 262.637 50.336L262.637 50.336L262.637 50.336C 257.977 50.785 258.148 50.242 259.156 61.246002L259.156 61.246002L259.156 61.246002C 260.18 72.402 260.023 75.066 258.336 75.387L258.336 75.387L258.336 75.387C 256.547 75.723 255.66 71.473 255.645 62.496002L255.645 62.496002L255.645 62.496002C 255.625 53.215 255.262 52.336 251.941 53.539L251.941 53.539L251.941 53.539C 248.762 54.687 247.438 54.621002 246.922 53.285L246.922 53.285L246.922 53.285C 246.273 51.59 246.414 35.383 247.078 35.383L247.078 35.383L247.078 35.383C 248.188 35.383 250.633 38.574 252.039 41.852L252.039 41.852L252.039 41.852C 253.738 45.828 255.832 46.637 264.453 46.652L264.453 46.652L264.453 46.652C 267.551 46.656 272.145 47.039 274.664 47.503998L274.664 47.503998L274.664 47.503998C 277.184 47.965 281.145 48.359 283.469 48.378998L283.469 48.378998L287.691 48.41L287.691 48.41L287.59 46.121002L287.59 46.121002L287.59 46.121002C 287.398 41.895 293.805 43.859 296.781 48.937L296.781 48.937L296.781 48.937C 299.992 54.418 301.23 54.121002 281.883 52.516L281.883 52.516L281.883 52.516C 275.195 51.961 275.242 52.562 282.465 59.695L282.465 59.695L282.465 59.695C 292.457 69.566 294.191 79.633 285.578 77.777" stroke="none" fill="#000000" fill-rule="evenodd" />
			</g>
		</g>
	</g>
</g>
</svg>